<svg width="96" height="95" viewBox="0 0 96 95" fill="none" xmlns="http://www.w3.org/2000/svg">
<g filter="url(#filter0_d_4_2)">
<path fill-rule="evenodd" clip-rule="evenodd" d="M66.1214 3.63895C62.7845 2.64091 58.4003 2 52.643 2C33.1731 2 29.8925 8.64118 29.3862 11.5286H35.9549C36.1186 11.2722 36.3104 11.0321 36.5283 10.8131C37.3293 10.0082 38.4175 9.55485 39.553 9.55295C41.2904 9.5445 42.8615 10.5846 43.5323 12.1873C44.2031 13.79 43.8412 15.6391 42.6156 16.8707C41.3901 18.1023 39.5428 18.4733 37.9368 17.8103C36.6885 17.2951 35.7775 16.2343 35.4335 14.9714H29.319V24.078H53.091V27.452H19.918C19.918 27.452 4 25.639 4 50.874C4 56.2467 4.62984 60.4348 5.62133 63.6994C5.97677 63.7202 6.17857 63.7071 6.17857 63.7071H14.6357V51.7571C14.4122 47.9631 15.7983 44.2506 18.4536 41.5313C21.1089 38.8121 24.7874 37.3382 28.5857 37.4714H52.6214C56.1807 37.6293 59.6473 36.3114 62.2028 33.829C64.7583 31.3465 66.1761 27.9195 66.1214 24.3571V3.63895ZM66.1714 77.922V77.9357C66.1714 77.9357 67.7571 89 42.3714 89C36.8988 89 32.642 88.434 29.3323 87.5354C29.3357 87.1689 29.368 86.959 29.368 86.959V65.35C29.3144 61.8589 30.7039 58.5005 33.2082 56.0676C35.7126 53.6348 39.1099 52.3433 42.598 52.498H66.153C69.8753 52.6286 73.4803 51.1841 76.0825 48.5193C78.6847 45.8544 80.0431 42.2162 79.824 38.498V26.787H88.105C88.105 26.787 89.1451 26.7199 90.6562 27.1393C91.487 30.2976 92 34.2307 92 39.1286C92 64.8786 75.7643 63.0286 75.7643 63.0286H41.9143V66.4714H66.1714V74.548H59.3912C58.9176 73.8106 58.2235 73.2161 57.3778 72.867C55.739 72.1906 53.854 72.5691 52.6034 73.8258C51.3529 75.0825 50.9836 76.9693 51.6681 78.6048C52.3525 80.2402 53.9557 81.3015 55.7286 81.2929C56.8873 81.291 57.9977 80.8284 58.815 80.007C59.3911 79.4281 59.7883 78.7045 59.9712 77.922H66.1714ZM76.6735 14.2929C76.6835 14.7862 76.639 15.076 76.639 15.076V36.65C76.6926 40.1411 75.3031 43.4995 72.7988 45.9324C70.2944 48.3652 66.8971 49.6567 63.409 49.502H39.854C36.1317 49.3714 32.5267 50.8159 29.9245 53.4807C27.3223 56.1456 25.9639 59.7838 26.183 63.502V75.213H17.895C17.895 75.213 17.8919 75.2132 17.8857 75.2135V53.6429C17.831 50.0805 19.2488 46.6535 21.8043 44.171C24.3598 41.6886 27.8265 40.3707 31.3857 40.5286H55.4214C59.2197 40.6618 62.8982 39.1879 65.5536 36.4686C68.2089 33.7494 69.595 30.0369 69.3714 26.2429V14.2929H76.6735Z" fill="#A06D08"/>
</g>
<defs>
<filter id="filter0_d_4_2" x="0" y="0" width="96" height="95" filterUnits="userSpaceOnUse" color-interpolation-filters="sRGB">
<feFlood flood-opacity="0" result="BackgroundImageFix"/>
<feColorMatrix in="SourceAlpha" type="matrix" values="0 0 0 0 0 0 0 0 0 0 0 0 0 0 0 0 0 0 127 0" result="hardAlpha"/>
<feOffset dy="2"/>
<feGaussianBlur stdDeviation="2"/>
<feComposite in2="hardAlpha" operator="out"/>
<feColorMatrix type="matrix" values="0 0 0 0 0.665 0 0 0 0 0.425378 0 0 0 0 0.144083 0 0 0 1 0"/>
<feBlend mode="normal" in2="BackgroundImageFix" result="effect1_dropShadow_4_2"/>
<feBlend mode="normal" in="SourceGraphic" in2="effect1_dropShadow_4_2" result="shape"/>
</filter>
</defs>
</svg>
