<svg width="113" height="113" viewBox="0 0 113 113" fill="none" xmlns="http://www.w3.org/2000/svg">
<g filter="url(#filter0_d_4_2)">
<path fill-rule="evenodd" clip-rule="evenodd" d="M52.643 2C27.765 2 29.319 12.843 29.319 12.843V24.078H53.091V27.452H19.918C19.918 27.452 4 25.639 4 50.874C4 76.109 17.895 75.213 17.895 75.213H26.183V63.502C25.9639 59.7838 27.3223 56.1456 29.9245 53.4807C32.5267 50.8159 36.1317 49.3714 39.854 49.502H63.409C66.8971 49.6567 70.2944 48.3652 72.7988 45.9324C75.3031 43.4996 76.6926 40.1411 76.639 36.65V15.076C76.639 15.076 78.648 2 52.643 2ZM39.553 9.55295C41.2904 9.5445 42.8615 10.5846 43.5323 12.1873C44.2031 13.79 43.8412 15.6391 42.6156 16.8707C41.3901 18.1023 39.5428 18.4733 37.9368 17.8103C36.3308 17.1474 35.283 15.5815 35.283 13.844C35.2793 12.7085 35.7273 11.618 36.5283 10.8131C37.3293 10.0082 38.4175 9.55485 39.553 9.55295ZM53.364 100C78.242 100 76.688 89.157 76.688 89.157V77.922H52.916V74.548H86.089C86.089 74.548 102 76.361 102 51.126C102 25.891 88.105 26.787 88.105 26.787H79.824V38.498C80.0431 42.2162 78.6847 45.8544 76.0825 48.5193C73.4803 51.1841 69.8753 52.6286 66.153 52.498H42.598C39.1099 52.3433 35.7126 53.6348 33.2082 56.0676C30.7039 58.5004 29.3144 61.8589 29.368 65.35V86.959C29.368 86.959 27.359 100 53.364 100ZM66.454 92.4471C64.7166 92.4555 63.1455 91.4154 62.4747 89.8127C61.8039 88.21 62.1658 86.3609 63.3914 85.1293C64.6169 83.8977 66.4642 83.5267 68.0702 84.1897C69.6762 84.8526 70.724 86.4185 70.724 88.156C70.7277 89.2915 70.2797 90.382 69.4787 91.1869C68.6777 91.9918 67.5895 92.4452 66.454 92.4471ZM58.6357 7C33.25 7 34.8357 18.0643 34.8357 18.0643V29.5286H59.0929V32.9714H25.2429C25.2429 32.9714 9 31.1214 9 56.8714C9 82.6214 23.1786 81.7071 23.1786 81.7071H31.6357V69.7571C31.4122 65.9631 32.7983 62.2506 35.4536 59.5314C38.1089 56.8121 41.7874 55.3382 45.5857 55.4714H69.6214C73.1807 55.6293 76.6473 54.3114 79.2028 51.829C81.7583 49.3465 83.1761 45.9195 83.1214 42.3571V20.3429C83.1214 20.3429 85.1714 7 58.6357 7ZM45.2786 14.7071C47.0515 14.6985 48.6546 15.7598 49.3391 17.3952C50.0236 19.0307 49.6543 20.9175 48.4037 22.1742C47.1531 23.4309 45.2682 23.8094 43.6294 23.133C41.9906 22.4566 40.9214 20.8586 40.9214 19.0857C40.9176 17.927 41.3748 16.8143 42.1921 15.993C43.0094 15.1716 44.1199 14.709 45.2786 14.7071ZM59.3714 107C84.7571 107 83.1714 95.9357 83.1714 95.9357V84.4714H58.9143V81.0286H92.7643C92.7643 81.0286 109 82.8786 109 57.1286C109 31.3786 94.8214 32.2929 94.8214 32.2929H86.3714V44.2429C86.595 48.0369 85.2089 51.7494 82.5536 54.4686C79.8982 57.1879 76.2197 58.6618 72.4214 58.5286H48.3857C44.8265 58.3707 41.3598 59.6886 38.8043 62.171C36.2488 64.6535 34.831 68.0805 34.8857 71.6429V93.6929C34.8857 93.6929 32.8357 107 59.3714 107ZM72.7286 99.2929C70.9557 99.3015 69.3525 98.2402 68.6681 96.6048C67.9836 94.9693 68.3529 93.0825 69.6034 91.8258C70.854 90.5691 72.739 90.1906 74.3778 90.867C76.0166 91.5434 77.0857 93.1414 77.0857 94.9143C77.0895 96.073 76.6324 97.1857 75.815 98.007C74.9977 98.8284 73.8873 99.291 72.7286 99.2929Z" fill="#D59A25"/>
</g>
<defs>
<filter id="filter0_d_4_2" x="0" y="0" width="113" height="113" filterUnits="userSpaceOnUse" color-interpolation-filters="sRGB">
<feFlood flood-opacity="0" result="BackgroundImageFix"/>
<feColorMatrix in="SourceAlpha" type="matrix" values="0 0 0 0 0 0 0 0 0 0 0 0 0 0 0 0 0 0 127 0" result="hardAlpha"/>
<feOffset dy="2"/>
<feGaussianBlur stdDeviation="2"/>
<feComposite in2="hardAlpha" operator="out"/>
<feColorMatrix type="matrix" values="0 0 0 0 0.665 0 0 0 0 0.425378 0 0 0 0 0.144083 0 0 0 1 0"/>
<feBlend mode="normal" in2="BackgroundImageFix" result="effect1_dropShadow_4_2"/>
<feBlend mode="normal" in="SourceGraphic" in2="effect1_dropShadow_4_2" result="shape"/>
</filter>
</defs>
</svg>
