<svg width="98" height="98" viewBox="0 0 98 98" fill="none" xmlns="http://www.w3.org/2000/svg">
<g filter="url(#filter0_i_2_11)">
<path fill-rule="evenodd" clip-rule="evenodd" d="M48.643 0C23.765 0 25.319 10.843 25.319 10.843V22.078H49.091V25.452H15.918C15.918 25.452 0 23.639 0 48.874C0 74.109 13.895 73.213 13.895 73.213H22.183V61.502C21.9639 57.7838 23.3223 54.1456 25.9245 51.4807C28.5267 48.8159 32.1317 47.3714 35.854 47.502H59.409C62.8971 47.6567 66.2944 46.3652 68.7988 43.9324C71.3031 41.4996 72.6926 38.1411 72.639 34.65V13.076C72.639 13.076 74.648 0 48.643 0ZM35.553 7.55295C37.2904 7.5445 38.8615 8.58456 39.5323 10.1873C40.2031 11.79 39.8412 13.6391 38.6156 14.8707C37.3901 16.1023 35.5428 16.4733 33.9368 15.8103C32.3308 15.1474 31.283 13.5815 31.283 11.844C31.2793 10.7085 31.7273 9.61805 32.5283 8.81313C33.3293 8.00821 34.4175 7.55485 35.553 7.55295ZM49.364 98C74.242 98 72.688 87.157 72.688 87.157V75.922H48.916V72.548H82.089C82.089 72.548 98 74.361 98 49.126C98 23.891 84.105 24.787 84.105 24.787H75.824V36.498C76.0431 40.2162 74.6847 43.8544 72.0825 46.5193C69.4803 49.1841 65.8753 50.6286 62.153 50.498H38.598C35.1099 50.3433 31.7126 51.6348 29.2082 54.0676C26.7039 56.5004 25.3144 59.8589 25.368 63.35V84.959C25.368 84.959 23.359 98 49.364 98ZM62.454 90.4471C60.7166 90.4555 59.1455 89.4154 58.4747 87.8127C57.8039 86.21 58.1658 84.3609 59.3914 83.1293C60.6169 81.8977 62.4642 81.5267 64.0702 82.1897C65.6762 82.8526 66.724 84.4185 66.724 86.156C66.7277 87.2915 66.2797 88.382 65.4787 89.1869C64.6777 89.9918 63.5895 90.4452 62.454 90.4471Z" fill="#E6B045"/>
</g>
<g filter="url(#filter1_i_2_11)">
<path fill-rule="evenodd" clip-rule="evenodd" d="M48.643 0C23.765 0 25.319 10.843 25.319 10.843V22.078H49.091V25.452H15.918C15.918 25.452 0 23.639 0 48.874C0 74.109 13.895 73.213 13.895 73.213H22.183V61.502C21.9639 57.7838 23.3223 54.1456 25.9245 51.4807C28.5267 48.8159 32.1317 47.3714 35.854 47.502H59.409C62.8971 47.6567 66.2944 46.3652 68.7988 43.9324C71.3031 41.4996 72.6926 38.1411 72.639 34.65V13.076C72.639 13.076 74.648 0 48.643 0ZM35.553 7.55295C37.2904 7.5445 38.8615 8.58456 39.5323 10.1873C40.2031 11.79 39.8412 13.6391 38.6156 14.8707C37.3901 16.1023 35.5428 16.4733 33.9368 15.8103C32.3308 15.1474 31.283 13.5815 31.283 11.844C31.2793 10.7085 31.7273 9.61805 32.5283 8.81313C33.3293 8.00821 34.4175 7.55485 35.553 7.55295ZM49.364 98C74.242 98 72.688 87.157 72.688 87.157V75.922H48.916V72.548H82.089C82.089 72.548 98 74.361 98 49.126C98 23.891 84.105 24.787 84.105 24.787H75.824V36.498C76.0431 40.2162 74.6847 43.8544 72.0825 46.5193C69.4803 49.1841 65.8753 50.6286 62.153 50.498H38.598C35.1099 50.3433 31.7126 51.6348 29.2082 54.0676C26.7039 56.5004 25.3144 59.8589 25.368 63.35V84.959C25.368 84.959 23.359 98 49.364 98ZM62.454 90.4471C60.7166 90.4555 59.1455 89.4154 58.4747 87.8127C57.8039 86.21 58.1658 84.3609 59.3914 83.1293C60.6169 81.8977 62.4642 81.5267 64.0702 82.1897C65.6762 82.8526 66.724 84.4185 66.724 86.156C66.7277 87.2915 66.2797 88.382 65.4787 89.1869C64.6777 89.9918 63.5895 90.4452 62.454 90.4471Z" fill="#E6B045"/>
</g>
<defs>
<filter id="filter0_i_2_11" x="0" y="-10" width="98" height="108" filterUnits="userSpaceOnUse" color-interpolation-filters="sRGB">
<feFlood flood-opacity="0" result="BackgroundImageFix"/>
<feBlend mode="normal" in="SourceGraphic" in2="BackgroundImageFix" result="shape"/>
<feColorMatrix in="SourceAlpha" type="matrix" values="0 0 0 0 0 0 0 0 0 0 0 0 0 0 0 0 0 0 127 0" result="hardAlpha"/>
<feOffset dy="-20"/>
<feGaussianBlur stdDeviation="5"/>
<feComposite in2="hardAlpha" operator="arithmetic" k2="-1" k3="1"/>
<feColorMatrix type="matrix" values="0 0 0 0 0 0 0 0 0 0 0 0 0 0 0 0 0 0 1 0"/>
<feBlend mode="normal" in2="shape" result="effect1_innerShadow_2_11"/>
</filter>
<filter id="filter1_i_2_11" x="0" y="-10" width="98" height="108" filterUnits="userSpaceOnUse" color-interpolation-filters="sRGB">
<feFlood flood-opacity="0" result="BackgroundImageFix"/>
<feBlend mode="normal" in="SourceGraphic" in2="BackgroundImageFix" result="shape"/>
<feColorMatrix in="SourceAlpha" type="matrix" values="0 0 0 0 0 0 0 0 0 0 0 0 0 0 0 0 0 0 127 0" result="hardAlpha"/>
<feOffset dy="-20"/>
<feGaussianBlur stdDeviation="5"/>
<feComposite in2="hardAlpha" operator="arithmetic" k2="-1" k3="1"/>
<feColorMatrix type="matrix" values="0 0 0 0 0 0 0 0 0 0 0 0 0 0 0 0 0 0 1 0"/>
<feBlend mode="normal" in2="shape" result="effect1_innerShadow_2_11"/>
</filter>
</defs>
</svg>
