<svg width="113" height="111" viewBox="0 0 113 111" fill="none" xmlns="http://www.w3.org/2000/svg">
<g filter="url(#filter0_d_5_36)">
<path fill-rule="evenodd" clip-rule="evenodd" d="M59.643 7C34.765 7 36.319 17.843 36.319 17.843V29.078H60.091V32.452H26.918C26.918 32.452 11 30.639 11 55.874C11 81.109 24.895 80.213 24.895 80.213H33.183V68.502C32.9639 64.7838 34.3223 61.1456 36.9245 58.4807C39.5267 55.8159 43.1317 54.3714 46.854 54.502H70.409C73.8971 54.6567 77.2944 53.3652 79.7988 50.9324C82.3031 48.4996 83.6926 45.1411 83.639 41.65V20.076C83.639 20.076 85.648 7 59.643 7ZM46.553 14.5529C48.2904 14.5445 49.8615 15.5846 50.5323 17.1873C51.2031 18.79 50.8412 20.6391 49.6156 21.8707C48.3901 23.1023 46.5428 23.4733 44.9368 22.8103C43.3308 22.1474 42.283 20.5815 42.283 18.844C42.2793 17.7085 42.7273 16.618 43.5283 15.8131C44.3293 15.0082 45.4175 14.5549 46.553 14.5529ZM60.364 105C85.242 105 83.688 94.157 83.688 94.157V82.922H59.916V79.548H93.089C93.089 79.548 109 81.361 109 56.126C109 30.891 95.105 31.787 95.105 31.787H86.824V43.498C87.0431 47.2162 85.6847 50.8544 83.0825 53.5193C80.4803 56.1841 76.8753 57.6286 73.153 57.498H49.598C46.1099 57.3433 42.7126 58.6348 40.2082 61.0676C37.7039 63.5004 36.3144 66.8589 36.368 70.35V91.959C36.368 91.959 34.359 105 60.364 105ZM73.454 97.4471C71.7166 97.4555 70.1455 96.4154 69.4747 94.8127C68.8039 93.21 69.1658 91.3609 70.3914 90.1293C71.6169 88.8977 73.4642 88.5267 75.0702 89.1897C76.6762 89.8526 77.724 91.4185 77.724 93.156C77.7277 94.2915 77.2797 95.382 76.4787 96.1869C75.6777 96.9918 74.5895 97.4452 73.454 97.4471ZM53.6357 2C28.25 2 29.8357 13.0643 29.8357 13.0643V24.5286H54.0929V27.9714H20.2429C20.2429 27.9714 4 26.1214 4 51.8714C4 77.6214 18.1786 76.7071 18.1786 76.7071H26.6357V64.7571C26.4122 60.9631 27.7983 57.2506 30.4536 54.5314C33.1089 51.8121 36.7874 50.3382 40.5857 50.4714H64.6214C68.1807 50.6293 71.6473 49.3114 74.2028 46.829C76.7583 44.3465 78.1761 40.9195 78.1214 37.3571V15.3429C78.1214 15.3429 80.1714 2 53.6357 2ZM40.2786 9.70709C42.0515 9.69847 43.6546 10.7598 44.3391 12.3952C45.0236 14.0307 44.6543 15.9175 43.4037 17.1742C42.1531 18.4309 40.2682 18.8094 38.6294 18.133C36.9906 17.4566 35.9214 15.8586 35.9214 14.0857C35.9176 12.927 36.3748 11.8143 37.1921 10.993C38.0094 10.1716 39.1199 9.70903 40.2786 9.70709ZM54.3714 102C79.7571 102 78.1714 90.9357 78.1714 90.9357V79.4714H53.9143V76.0286H87.7643C87.7643 76.0286 104 77.8786 104 52.1286C104 26.3786 89.8214 27.2929 89.8214 27.2929H81.3714V39.2429C81.595 43.0369 80.2089 46.7494 77.5536 49.4686C74.8982 52.1879 71.2197 53.6618 67.4214 53.5286H43.3857C39.8265 53.3707 36.3598 54.6886 33.8043 57.171C31.2488 59.6535 29.831 63.0805 29.8857 66.6429V88.6929C29.8857 88.6929 27.8357 102 54.3714 102ZM67.7286 94.2929C65.9557 94.3015 64.3525 93.2402 63.6681 91.6048C62.9836 89.9693 63.3529 88.0825 64.6034 86.8258C65.854 85.5691 67.739 85.1906 69.3778 85.867C71.0166 86.5434 72.0857 88.1414 72.0857 89.9143C72.0895 91.073 71.6324 92.1857 70.815 93.007C69.9977 93.8284 68.8873 94.291 67.7286 94.2929Z" fill="#D59A25"/>
</g>
<path d="M43.7152 68.338C43.7152 68.338 37.5 78 41.5 87L44.9985 93.1892C44.9985 93.1892 46.65 96.1431 50.5 97C54.35 97.8569 65.5 97 65.5 97L60.3987 89.7615C58.6875 89.7615 54.1097 90.8136 53.5542 88.0476C53.5542 88.0476 51.843 85.9053 51.4152 81.6206C50.9875 77.3359 52.2708 76.7139 53.5542 75C54.8375 73.2861 59 73.4797 59 73.4797H70C70 73.4797 81.6555 74.4278 88.5 71C95.3445 67.5722 99 62 99.5 55C100 48 101 45.5 97.5 40.5C94 35.5 88.5 35 88.5 35C88.5 35 90.5 49.5 86.5 55C82.5 60.5 81.2616 60.7876 74.5155 62.3394L53.9819 62.3394C48.8486 62.3394 43.7152 68.338 43.7152 68.338Z" fill="#D9D9D9" stroke="white"/>
<path d="M74 42C74 42 80 33 75.5 18.5L72.5 13C72.5 13 70 11 65.5 10C61 9 49.5 11 49.5 11L54.5 17C56.5 17 61.8507 15.7722 62.5 19C62.5 19 64.5 21.5 65 26.5C65.5 31.5 63.5 32.5 62 34.5C60.5 36.5 52 36 52 36H32C32 36 27.5 35 19.5 39C11.5 43 13 57.5 13 57.5C13 57.5 14.5 69.5 18 73C21.5 76.5 26 74.5 26 74.5C26 74.5 24 66 26 60C28 54 30.1149 50.8109 38 49H62C68 49 74 42 74 42Z" fill="#D9D9D9" stroke="white"/>
<defs>
<filter id="filter0_d_5_36" x="0" y="0" width="113" height="111" filterUnits="userSpaceOnUse" color-interpolation-filters="sRGB">
<feFlood flood-opacity="0" result="BackgroundImageFix"/>
<feColorMatrix in="SourceAlpha" type="matrix" values="0 0 0 0 0 0 0 0 0 0 0 0 0 0 0 0 0 0 127 0" result="hardAlpha"/>
<feOffset dy="2"/>
<feGaussianBlur stdDeviation="2"/>
<feComposite in2="hardAlpha" operator="out"/>
<feColorMatrix type="matrix" values="0 0 0 0 0.665 0 0 0 0 0.425378 0 0 0 0 0.144083 0 0 0 1 0"/>
<feBlend mode="normal" in2="BackgroundImageFix" result="effect1_dropShadow_5_36"/>
<feBlend mode="normal" in="SourceGraphic" in2="effect1_dropShadow_5_36" result="shape"/>
</filter>
</defs>
</svg>
