<svg width="101" height="101" viewBox="0 0 101 101" fill="none" xmlns="http://www.w3.org/2000/svg">
<mask id="mask0_2_66" style="mask-type:alpha" maskUnits="userSpaceOnUse" x="0" y="0" width="101" height="101">
<circle cx="50.5" cy="50.5" r="50.5" fill="#070202"/>
</mask>
<g mask="url(#mask0_2_66)">
<g filter="url(#filter0_d_2_66)">
<path fill-rule="evenodd" clip-rule="evenodd" d="M28.0252 8.06759C30.8934 5.4798 36.7457 3 48.643 3C74.648 3 72.639 16.076 72.639 16.076V37.65C72.6637 39.2602 72.3814 40.8422 71.8244 42.3181C72.0353 41.3539 72.1368 40.3609 72.1214 39.3571V17.3429C72.1214 17.3429 74.1714 4 47.6357 4C37.207 4 31.3302 5.86725 28.0252 8.06759ZM48.0929 28.452H15.918C15.918 28.452 10.4293 27.8269 5.89792 32.4202C10.0318 29.4918 14.2429 29.9714 14.2429 29.9714H48.0929V28.452ZM20.6357 76.213H22.183V64.502C22.0286 61.8811 22.6579 59.2999 23.9543 57.0713C21.6257 59.7313 20.4266 63.2085 20.6357 66.7571V76.213ZM32.1278 12.2779C31.788 12.4712 31.4728 12.711 31.1921 12.993C30.3748 13.8143 29.9176 14.927 29.9214 16.0857C29.9214 17.8586 30.9906 19.4566 32.6294 20.133C34.2682 20.8094 36.1531 20.4309 37.4037 19.1742C37.6541 18.9225 37.8692 18.6456 38.0476 18.3504C36.8609 19.1879 35.3106 19.3774 33.9368 18.8103C32.3308 18.1474 31.283 16.5815 31.283 14.844C31.28 13.9145 31.5796 13.0151 32.1278 12.2779ZM26.8526 60.2016C27.1495 59.8429 27.467 59.4987 27.8043 59.171C30.3598 56.6886 33.8265 55.3707 37.3857 55.5286H61.4214C65.2197 55.6618 68.8982 54.1879 71.5536 51.4686C73.461 49.5153 74.7135 47.0494 75.1848 44.4089C74.5608 46.3067 73.5083 48.0591 72.0825 49.5193C69.4803 52.1841 65.8753 53.6286 62.153 53.498H38.598C35.1099 53.3433 31.7126 54.6348 29.2082 57.0676C28.2557 57.9929 27.4645 59.0521 26.8526 60.2016ZM72.1741 92.9574C72.8599 91.3564 72.688 90.157 72.688 90.157V78.922H48.916V78.0286H47.9143V81.4714H72.1714V92.9357C72.1714 92.9357 72.1725 92.9431 72.1741 92.9574ZM75.824 29.2929H83.8214C83.8214 29.2929 97.6153 28.4034 97.9921 53.0884C97.9974 52.772 98 52.4513 98 52.126C98 26.891 84.105 27.787 84.105 27.787H75.824V29.2929ZM58.4747 90.8127C59.1455 92.4154 60.7166 93.4555 62.454 93.4471C63.5895 93.4452 64.6777 92.9918 65.4787 92.1869C65.701 91.9636 65.896 91.7182 66.0618 91.4561C66.0777 91.6072 66.0857 91.7601 66.0857 91.9143C66.0895 93.073 65.6324 94.1857 64.815 95.007C63.9977 95.8284 62.8873 96.291 61.7286 96.2929C59.9557 96.3015 58.3525 95.2402 57.6681 93.6048C57.0757 92.1894 57.2726 90.5857 58.1469 89.3652C58.1707 89.8543 58.2786 90.3441 58.4747 90.8127Z" fill="#D59A25"/>
</g>
</g>
<defs>
<filter id="filter0_d_2_66" x="1.89792" y="1" width="100.102" height="101.293" filterUnits="userSpaceOnUse" color-interpolation-filters="sRGB">
<feFlood flood-opacity="0" result="BackgroundImageFix"/>
<feColorMatrix in="SourceAlpha" type="matrix" values="0 0 0 0 0 0 0 0 0 0 0 0 0 0 0 0 0 0 127 0" result="hardAlpha"/>
<feOffset dy="2"/>
<feGaussianBlur stdDeviation="2"/>
<feComposite in2="hardAlpha" operator="out"/>
<feColorMatrix type="matrix" values="0 0 0 0 0.665 0 0 0 0 0.425378 0 0 0 0 0.144083 0 0 0 1 0"/>
<feBlend mode="normal" in2="BackgroundImageFix" result="effect1_dropShadow_2_66"/>
<feBlend mode="normal" in="SourceGraphic" in2="effect1_dropShadow_2_66" result="shape"/>
</filter>
</defs>
</svg>
