<svg width="113" height="109" viewBox="0 0 113 109" fill="none" xmlns="http://www.w3.org/2000/svg">
<g filter="url(#filter0_biiiii_5_41)">
<path fill-rule="evenodd" clip-rule="evenodd" d="M56.5 109C87.7041 109 113 84.5995 113 54.5C113 24.4005 87.7041 0 56.5 0C25.2959 0 -2.28882e-05 24.4005 -2.28882e-05 54.5C-2.28882e-05 84.5995 25.2959 109 56.5 109ZM41.0238 11.0606C44.4545 9.33113 49.9263 8 58.643 8C66.8483 8 72.2647 9.30184 75.8351 11.084C77.4986 13.8879 77.1214 16.3429 77.1214 16.3429V38.3571C77.1761 41.9195 75.7583 45.3465 73.2028 47.829C70.6473 50.3114 67.1807 51.6293 63.6214 51.4714H39.5857C35.7874 51.3382 32.1089 52.8121 29.4536 55.5314C26.7983 58.2506 25.4122 61.9631 25.6357 65.7571V77.7071H17.1786C17.1786 77.7071 16.7402 77.7354 16.0176 77.642C12.88 74.4352 9.99997 68.3627 9.99997 56.874C9.99997 31.639 25.918 33.452 25.918 33.452H59.091V30.078H35.319V28.9714H53.0929V25.5286H35.319V18.843C35.319 18.843 35.224 18.1807 35.4566 17.1836C35.9269 18.0448 36.6832 18.7425 37.6294 19.133C38.8642 19.6427 40.2388 19.5534 41.3764 18.9408C41.3138 19.2355 41.282 19.5381 41.283 19.844C41.283 21.5815 42.3308 23.1474 43.9368 23.8103C45.5428 24.4733 47.3901 24.1023 48.6156 22.8707C49.8412 21.6391 50.2031 19.79 49.5323 18.1873C48.8615 16.5846 47.2904 15.5445 45.553 15.5529C44.8567 15.5541 44.1781 15.7251 43.5727 16.0427C43.7669 15.1756 43.6972 14.251 43.3391 13.3952C42.891 12.3246 42.0492 11.5 41.0238 11.0606ZM43.5727 16.0427C43.1909 16.2431 42.8381 16.5018 42.5283 16.8131C41.9431 17.4012 41.5463 18.1417 41.3764 18.9408C41.7486 18.7404 42.0954 18.484 42.4037 18.1742C42.9999 17.5751 43.3958 16.8327 43.5727 16.0427ZM41.0238 11.0606C37.083 13.0473 35.8355 15.5596 35.4566 17.1836C35.1124 16.5531 34.9214 15.835 34.9214 15.0857C34.9176 13.927 35.3748 12.8143 36.1921 11.993C37.0094 11.1716 38.1199 10.709 39.2786 10.7071C39.8909 10.7041 40.4829 10.8288 41.0238 11.0606ZM35.319 25.5286H28.8357V14.0643C28.8357 14.0643 27.25 3 52.6357 3C67.789 3 73.6204 7.35116 75.8351 11.084C83.5802 14.9499 82.639 21.076 82.639 21.076V28.2929H80.3714V40.2429C80.595 44.0369 79.2089 47.7494 76.5536 50.4686C73.8982 53.1879 70.2197 54.6618 66.4214 54.5286H42.3857C38.8265 54.3707 35.3598 55.6886 32.8043 58.171C30.2488 60.6535 28.831 64.0805 28.8857 67.6429V81.213H23.895C23.895 81.213 19.7719 81.4789 16.0176 77.642C12.6308 77.2042 2.99997 74.0937 2.99997 52.8714C2.99997 27.1214 19.2429 28.9714 19.2429 28.9714H35.319V25.5286ZM39.5559 101.313C34.657 97.5742 35.368 92.959 35.368 92.959V71.35C35.3144 67.8589 36.7039 64.5004 39.2082 62.0676C41.7126 59.6348 45.1099 58.3433 48.598 58.498H72.153C75.8753 58.6286 79.4803 57.1841 82.0825 54.5193C84.6847 51.8544 86.0431 48.2162 85.824 44.498V32.787H94.105C94.105 32.787 96.002 32.6647 98.3941 33.7834C100.942 37.3782 103 43.3182 103 53.1286C103 78.8786 86.7643 77.0286 86.7643 77.0286H52.9143V80.4714H77.1714V80.548H58.916V83.922H77.1714V91.9357C77.1714 91.9357 77.3389 93.1049 76.6931 94.6831C76.7141 94.5091 76.7245 94.3331 76.724 94.156C76.724 92.4185 75.6762 90.8526 74.0702 90.1897C73.0746 89.7787 71.9863 89.7651 71.0109 90.1075C70.7415 88.6694 69.7633 87.4388 68.3778 86.867C66.739 86.1906 64.854 86.5691 63.6034 87.8258C62.3529 89.0825 61.9836 90.9693 62.6681 92.6048C63.3525 94.2402 64.9557 95.3015 66.7286 95.2929C67.2461 95.2921 67.754 95.1993 68.2304 95.0237C68.2856 95.2907 68.3668 95.5549 68.4747 95.8127C69.1455 97.4154 70.7166 98.4555 72.454 98.4471C73.0106 98.4462 73.5558 98.3368 74.0614 98.1306C71.0185 100.659 65.0483 103 53.3714 103C47.4608 103 42.9685 102.34 39.5559 101.313ZM68.2304 95.0237C68.8207 94.8062 69.3627 94.4615 69.815 94.007C70.6324 93.1857 71.0895 92.073 71.0857 90.9143C71.0857 90.6403 71.0601 90.3704 71.0109 90.1075C70.4128 90.3174 69.8572 90.6612 69.3914 91.1293C68.3629 92.1628 67.9426 93.6311 68.2304 95.0237ZM74.0614 98.1306C75.4834 96.9491 76.2661 95.7267 76.6931 94.6831C76.5793 95.6247 76.1547 96.5075 75.4787 97.1869C75.0703 97.5973 74.5873 97.9163 74.0614 98.1306ZM39.5559 101.313C27.6472 97.7322 28.8857 89.6929 28.8857 89.6929V81.213H32.183V69.502C31.9639 65.7838 33.3223 62.1456 35.9245 59.4807C38.5267 56.8159 42.1317 55.3714 45.854 55.502H69.409C72.8971 55.6567 76.2944 54.3652 78.7988 51.9324C81.3031 49.4996 82.6926 46.1411 82.639 42.65V28.2929H88.8214C88.8214 28.2929 94.2543 27.9426 98.3941 33.7834C102.476 35.6923 108 41.215 108 57.126C108 82.361 92.089 80.548 92.089 80.548H77.1714V83.922H82.688V95.157C82.688 95.157 84.242 106 59.364 106C48.8292 106 42.8918 103.86 39.5559 101.313Z" fill="#E4B200"/>
</g>
<defs>
<filter id="filter0_biiiii_5_41" x="-10" y="-10" width="133" height="129" filterUnits="userSpaceOnUse" color-interpolation-filters="sRGB">
<feFlood flood-opacity="0" result="BackgroundImageFix"/>
<feGaussianBlur in="BackgroundImageFix" stdDeviation="5"/>
<feComposite in2="SourceAlpha" operator="in" result="effect1_backgroundBlur_5_41"/>
<feBlend mode="normal" in="SourceGraphic" in2="effect1_backgroundBlur_5_41" result="shape"/>
<feColorMatrix in="SourceAlpha" type="matrix" values="0 0 0 0 0 0 0 0 0 0 0 0 0 0 0 0 0 0 127 0" result="hardAlpha"/>
<feOffset dy="12"/>
<feGaussianBlur stdDeviation="3"/>
<feComposite in2="hardAlpha" operator="arithmetic" k2="-1" k3="1"/>
<feColorMatrix type="matrix" values="0 0 0 0 0 0 0 0 0 0 0 0 0 0 0 0 0 0 0.25 0"/>
<feBlend mode="normal" in2="shape" result="effect2_innerShadow_5_41"/>
<feColorMatrix in="SourceAlpha" type="matrix" values="0 0 0 0 0 0 0 0 0 0 0 0 0 0 0 0 0 0 127 0" result="hardAlpha"/>
<feOffset dy="4"/>
<feGaussianBlur stdDeviation="2"/>
<feComposite in2="hardAlpha" operator="arithmetic" k2="-1" k3="1"/>
<feColorMatrix type="matrix" values="0 0 0 0 0 0 0 0 0 0 0 0 0 0 0 0 0 0 0.25 0"/>
<feBlend mode="normal" in2="effect2_innerShadow_5_41" result="effect3_innerShadow_5_41"/>
<feColorMatrix in="SourceAlpha" type="matrix" values="0 0 0 0 0 0 0 0 0 0 0 0 0 0 0 0 0 0 127 0" result="hardAlpha"/>
<feOffset dy="4"/>
<feGaussianBlur stdDeviation="2"/>
<feComposite in2="hardAlpha" operator="arithmetic" k2="-1" k3="1"/>
<feColorMatrix type="matrix" values="0 0 0 0 0 0 0 0 0 0 0 0 0 0 0 0 0 0 0.25 0"/>
<feBlend mode="normal" in2="effect3_innerShadow_5_41" result="effect4_innerShadow_5_41"/>
<feColorMatrix in="SourceAlpha" type="matrix" values="0 0 0 0 0 0 0 0 0 0 0 0 0 0 0 0 0 0 127 0" result="hardAlpha"/>
<feOffset dy="4"/>
<feGaussianBlur stdDeviation="2"/>
<feComposite in2="hardAlpha" operator="arithmetic" k2="-1" k3="1"/>
<feColorMatrix type="matrix" values="0 0 0 0 0 0 0 0 0 0 0 0 0 0 0 0 0 0 0.25 0"/>
<feBlend mode="normal" in2="effect4_innerShadow_5_41" result="effect5_innerShadow_5_41"/>
<feColorMatrix in="SourceAlpha" type="matrix" values="0 0 0 0 0 0 0 0 0 0 0 0 0 0 0 0 0 0 127 0" result="hardAlpha"/>
<feOffset dy="4"/>
<feGaussianBlur stdDeviation="2"/>
<feComposite in2="hardAlpha" operator="arithmetic" k2="-1" k3="1"/>
<feColorMatrix type="matrix" values="0 0 0 0 0.525833 0 0 0 0 0.451516 0 0 0 0 0.409712 0 0 0 1 0"/>
<feBlend mode="normal" in2="effect5_innerShadow_5_41" result="effect6_innerShadow_5_41"/>
</filter>
</defs>
</svg>
