<svg width="101" height="104" viewBox="0 0 101 104" fill="none" xmlns="http://www.w3.org/2000/svg">
<g filter="url(#filter0_d_4_13)">
<path fill-rule="evenodd" clip-rule="evenodd" d="M71.1214 12.639C67.7845 11.6409 63.4003 11 57.643 11C38.1731 11 34.8925 17.6412 34.3862 20.5286H40.9549C41.1186 20.2722 41.3104 20.0321 41.5283 19.8131C42.3293 19.0082 43.4175 18.5549 44.553 18.5529C46.2904 18.5445 47.8615 19.5846 48.5323 21.1873C49.2031 22.79 48.8412 24.6391 47.6156 25.8707C46.3901 27.1023 44.5428 27.4733 42.9368 26.8103C41.6885 26.2951 40.7775 25.2343 40.4335 23.9714H34.319V33.078H58.091V36.452H24.918C24.918 36.452 9 34.639 9 59.874C9 65.2467 9.62984 69.4348 10.6213 72.6994C10.9768 72.7202 11.1786 72.7071 11.1786 72.7071H19.6357V60.7571C19.4122 56.9631 20.7983 53.2506 23.4536 50.5313C26.1089 47.8121 29.7874 46.3382 33.5857 46.4714H57.6214C61.1807 46.6293 64.6473 45.3114 67.2028 42.829C69.7583 40.3465 71.1761 36.9195 71.1214 33.3571V12.639ZM71.1714 86.922V86.9357C71.1714 86.9357 72.7571 98 47.3714 98C41.8988 98 37.642 97.434 34.3323 96.5354C34.3357 96.1689 34.368 95.959 34.368 95.959V74.35C34.3144 70.8589 35.7039 67.5005 38.2082 65.0676C40.7126 62.6348 44.1099 61.3433 47.598 61.498H71.153C74.8753 61.6286 78.4803 60.1841 81.0825 57.5193C83.6847 54.8544 85.0431 51.2162 84.824 47.498V35.787H93.105C93.105 35.787 94.1451 35.7199 95.6562 36.1393C96.487 39.2976 97 43.2307 97 48.1286C97 73.8786 80.7643 72.0286 80.7643 72.0286H46.9143V75.4714H71.1714V83.548H64.3912C63.9176 82.8106 63.2235 82.2161 62.3778 81.867C60.739 81.1906 58.854 81.5691 57.6034 82.8258C56.3529 84.0825 55.9836 85.9693 56.6681 87.6048C57.3525 89.2402 58.9557 90.3015 60.7286 90.2929C61.8873 90.291 62.9977 89.8284 63.815 89.007C64.3911 88.4281 64.7883 87.7045 64.9712 86.922H71.1714ZM81.6735 23.2929C81.6835 23.7862 81.639 24.076 81.639 24.076V45.65C81.6926 49.1411 80.3031 52.4995 77.7988 54.9324C75.2944 57.3652 71.8971 58.6567 68.409 58.502H44.854C41.1317 58.3714 37.5267 59.8159 34.9245 62.4807C32.3223 65.1456 30.9639 68.7838 31.183 72.502V84.213H22.895C22.895 84.213 22.8919 84.2132 22.8857 84.2135V62.6429C22.831 59.0805 24.2488 55.6535 26.8043 53.171C29.3598 50.6886 32.8265 49.3707 36.3857 49.5286H60.4214C64.2197 49.6618 67.8982 48.1879 70.5536 45.4686C73.2089 42.7494 74.595 39.0369 74.3714 35.2429V23.2929H81.6735Z" fill="#A06D08"/>
</g>
<mask id="mask0_4_13" style="mask-type:alpha" maskUnits="userSpaceOnUse" x="0" y="0" width="101" height="101">
<circle cx="50.5" cy="50.5" r="50.5" fill="#070202"/>
</mask>
<g mask="url(#mask0_4_13)">
<g filter="url(#filter1_d_4_13)">
<path fill-rule="evenodd" clip-rule="evenodd" d="M28.0252 8.06759C30.8934 5.4798 36.7457 3 48.643 3C74.648 3 72.639 16.076 72.639 16.076V37.65C72.6637 39.2602 72.3814 40.8422 71.8244 42.3181C72.0353 41.3539 72.1368 40.3609 72.1214 39.3571V17.3429C72.1214 17.3429 74.1714 4 47.6357 4C37.207 4 31.3302 5.86725 28.0252 8.06759ZM48.0929 28.452H15.918C15.918 28.452 10.4293 27.8269 5.89792 32.4202C10.0318 29.4918 14.2429 29.9714 14.2429 29.9714H48.0929V28.452ZM20.6357 76.213H22.183V64.502C22.0286 61.8811 22.6579 59.2999 23.9543 57.0713C21.6257 59.7313 20.4266 63.2085 20.6357 66.7571V76.213ZM32.1278 12.2779C31.788 12.4712 31.4728 12.711 31.1921 12.993C30.3748 13.8143 29.9176 14.927 29.9214 16.0857C29.9214 17.8586 30.9906 19.4566 32.6294 20.133C34.2682 20.8094 36.1531 20.4309 37.4037 19.1742C37.6541 18.9225 37.8692 18.6456 38.0476 18.3504C36.8609 19.1879 35.3106 19.3774 33.9368 18.8103C32.3308 18.1474 31.283 16.5815 31.283 14.844C31.28 13.9145 31.5796 13.0151 32.1278 12.2779ZM26.8526 60.2016C27.1495 59.8429 27.467 59.4987 27.8043 59.171C30.3598 56.6886 33.8265 55.3707 37.3857 55.5286H61.4214C65.2197 55.6618 68.8982 54.1879 71.5536 51.4686C73.461 49.5153 74.7135 47.0494 75.1848 44.4089C74.5608 46.3067 73.5083 48.0591 72.0825 49.5193C69.4803 52.1841 65.8753 53.6286 62.153 53.498H38.598C35.1099 53.3433 31.7126 54.6348 29.2082 57.0676C28.2557 57.9929 27.4645 59.0521 26.8526 60.2016ZM72.1741 92.9574C72.8599 91.3564 72.688 90.157 72.688 90.157V78.922H48.916V78.0286H47.9143V81.4714H72.1714V92.9357C72.1714 92.9357 72.1725 92.9431 72.1741 92.9574ZM75.824 29.2929H83.8214C83.8214 29.2929 97.6153 28.4034 97.9921 53.0884C97.9974 52.772 98 52.4513 98 52.126C98 26.891 84.105 27.787 84.105 27.787H75.824V29.2929ZM58.4747 90.8127C59.1455 92.4154 60.7166 93.4555 62.454 93.4471C63.5895 93.4452 64.6777 92.9918 65.4787 92.1869C65.701 91.9636 65.896 91.7182 66.0618 91.4561C66.0777 91.6072 66.0857 91.7601 66.0857 91.9143C66.0895 93.073 65.6324 94.1857 64.815 95.007C63.9977 95.8284 62.8873 96.291 61.7286 96.2929C59.9557 96.3015 58.3525 95.2402 57.6681 93.6048C57.0757 92.1894 57.2726 90.5857 58.1469 89.3652C58.1707 89.8543 58.2786 90.3441 58.4747 90.8127Z" fill="#D59A25"/>
</g>
</g>
<defs>
<filter id="filter0_d_4_13" x="5" y="9" width="96" height="95" filterUnits="userSpaceOnUse" color-interpolation-filters="sRGB">
<feFlood flood-opacity="0" result="BackgroundImageFix"/>
<feColorMatrix in="SourceAlpha" type="matrix" values="0 0 0 0 0 0 0 0 0 0 0 0 0 0 0 0 0 0 127 0" result="hardAlpha"/>
<feOffset dy="2"/>
<feGaussianBlur stdDeviation="2"/>
<feComposite in2="hardAlpha" operator="out"/>
<feColorMatrix type="matrix" values="0 0 0 0 0.665 0 0 0 0 0.425378 0 0 0 0 0.144083 0 0 0 1 0"/>
<feBlend mode="normal" in2="BackgroundImageFix" result="effect1_dropShadow_4_13"/>
<feBlend mode="normal" in="SourceGraphic" in2="effect1_dropShadow_4_13" result="shape"/>
</filter>
<filter id="filter1_d_4_13" x="1.89792" y="1" width="100.102" height="101.293" filterUnits="userSpaceOnUse" color-interpolation-filters="sRGB">
<feFlood flood-opacity="0" result="BackgroundImageFix"/>
<feColorMatrix in="SourceAlpha" type="matrix" values="0 0 0 0 0 0 0 0 0 0 0 0 0 0 0 0 0 0 127 0" result="hardAlpha"/>
<feOffset dy="2"/>
<feGaussianBlur stdDeviation="2"/>
<feComposite in2="hardAlpha" operator="out"/>
<feColorMatrix type="matrix" values="0 0 0 0 0.665 0 0 0 0 0.425378 0 0 0 0 0.144083 0 0 0 1 0"/>
<feBlend mode="normal" in2="BackgroundImageFix" result="effect1_dropShadow_4_13"/>
<feBlend mode="normal" in="SourceGraphic" in2="effect1_dropShadow_4_13" result="shape"/>
</filter>
</defs>
</svg>
