<svg width="113" height="111" viewBox="0 0 113 111" fill="none" xmlns="http://www.w3.org/2000/svg">
<g filter="url(#filter0_d_5_36)">
<path fill-rule="evenodd" clip-rule="evenodd" d="M59.643 7C34.765 7 36.319 17.843 36.319 17.843V29.078H60.091V32.452H26.918C26.918 32.452 11 30.639 11 55.874C11 81.109 24.895 80.213 24.895 80.213H33.183V68.502C32.9639 64.7838 34.3223 61.1456 36.9245 58.4807C39.5267 55.8159 43.1317 54.3714 46.854 54.502H70.409C73.8971 54.6567 77.2944 53.3652 79.7988 50.9324C82.3031 48.4996 83.6926 45.1411 83.639 41.65V20.076C83.639 20.076 85.648 7 59.643 7ZM46.553 14.5529C48.2904 14.5445 49.8615 15.5846 50.5323 17.1873C51.2031 18.79 50.8412 20.6391 49.6156 21.8707C48.3901 23.1023 46.5428 23.4733 44.9368 22.8103C43.3308 22.1474 42.283 20.5815 42.283 18.844C42.2793 17.7085 42.7273 16.618 43.5283 15.8131C44.3293 15.0082 45.4175 14.5549 46.553 14.5529ZM60.364 105C85.242 105 83.688 94.157 83.688 94.157V82.922H59.916V79.548H93.089C93.089 79.548 109 81.361 109 56.126C109 30.891 95.105 31.787 95.105 31.787H86.824V43.498C87.0431 47.2162 85.6847 50.8544 83.0825 53.5193C80.4803 56.1841 76.8753 57.6286 73.153 57.498H49.598C46.1099 57.3433 42.7126 58.6348 40.2082 61.0676C37.7039 63.5004 36.3144 66.8589 36.368 70.35V91.959C36.368 91.959 34.359 105 60.364 105ZM73.454 97.4471C71.7166 97.4555 70.1455 96.4154 69.4747 94.8127C68.8039 93.21 69.1658 91.3609 70.3914 90.1293C71.6169 88.8977 73.4642 88.5267 75.0702 89.1897C76.6762 89.8526 77.724 91.4185 77.724 93.156C77.7277 94.2915 77.2797 95.382 76.4787 96.1869C75.6777 96.9918 74.5895 97.4452 73.454 97.4471ZM53.6357 2C28.25 2 29.8357 13.0643 29.8357 13.0643V24.5286H54.0929V27.9714H20.2429C20.2429 27.9714 4 26.1214 4 51.8714C4 77.6214 18.1786 76.7071 18.1786 76.7071H26.6357V64.7571C26.4122 60.9631 27.7983 57.2506 30.4536 54.5314C33.1089 51.8121 36.7874 50.3382 40.5857 50.4714H64.6214C68.1807 50.6293 71.6473 49.3114 74.2028 46.829C76.7583 44.3465 78.1761 40.9195 78.1214 37.3571V15.3429C78.1214 15.3429 80.1714 2 53.6357 2ZM40.2786 9.70709C42.0515 9.69847 43.6546 10.7598 44.3391 12.3952C45.0236 14.0307 44.6543 15.9175 43.4037 17.1742C42.1531 18.4309 40.2682 18.8094 38.6294 18.133C36.9906 17.4566 35.9214 15.8586 35.9214 14.0857C35.9176 12.927 36.3748 11.8143 37.1921 10.993C38.0094 10.1716 39.1199 9.70903 40.2786 9.70709ZM54.3714 102C79.7571 102 78.1714 90.9357 78.1714 90.9357V79.4714H53.9143V76.0286H87.7643C87.7643 76.0286 104 77.8786 104 52.1286C104 26.3786 89.8214 27.2929 89.8214 27.2929H81.3714V39.2429C81.595 43.0369 80.2089 46.7494 77.5536 49.4686C74.8982 52.1879 71.2197 53.6618 67.4214 53.5286H43.3857C39.8265 53.3707 36.3598 54.6886 33.8043 57.171C31.2488 59.6535 29.831 63.0805 29.8857 66.6429V88.6929C29.8857 88.6929 27.8357 102 54.3714 102ZM67.7286 94.2929C65.9557 94.3015 64.3525 93.2402 63.6681 91.6048C62.9836 89.9693 63.3529 88.0825 64.6034 86.8258C65.854 85.5691 67.739 85.1906 69.3778 85.867C71.0166 86.5434 72.0857 88.1414 72.0857 89.9143C72.0895 91.073 71.6324 92.1857 70.815 93.007C69.9977 93.8284 68.8873 94.291 67.7286 94.2929Z" fill="#D59A25"/>
</g>
<g filter="url(#filter1_bi_5_36)">
<path d="M43.7152 68.338C43.7152 68.338 37.5 78 41.5 87L44.9985 93.1892C44.9985 93.1892 46.65 96.1431 50.5 97C54.35 97.8569 65.5 97 65.5 97L60.3987 89.7615C58.6875 89.7615 54.1097 90.8136 53.5542 88.0476C53.5542 88.0476 51.843 85.9053 51.4152 81.6206C50.9875 77.3359 52.2708 76.7139 53.5542 75C54.8375 73.2861 59 73.4797 59 73.4797H70C70 73.4797 81.6555 74.4278 88.5 71C95.3445 67.5722 99 62 99.5 55C100 48 101 45.5 97.5 40.5C94 35.5 88.5 35 88.5 35C88.5 35 90.5 49.5 86.5 55C82.5 60.5 81.2616 60.7876 74.5155 62.3394L53.9819 62.3394C48.8486 62.3394 43.7152 68.338 43.7152 68.338Z" fill="#D9D9D9"/>
<path d="M43.7152 68.338C43.7152 68.338 37.5 78 41.5 87L44.9985 93.1892C44.9985 93.1892 46.65 96.1431 50.5 97C54.35 97.8569 65.5 97 65.5 97L60.3987 89.7615C58.6875 89.7615 54.1097 90.8136 53.5542 88.0476C53.5542 88.0476 51.843 85.9053 51.4152 81.6206C50.9875 77.3359 52.2708 76.7139 53.5542 75C54.8375 73.2861 59 73.4797 59 73.4797H70C70 73.4797 81.6555 74.4278 88.5 71C95.3445 67.5722 99 62 99.5 55C100 48 101 45.5 97.5 40.5C94 35.5 88.5 35 88.5 35C88.5 35 90.5 49.5 86.5 55C82.5 60.5 81.2616 60.7876 74.5155 62.3394L53.9819 62.3394C48.8486 62.3394 43.7152 68.338 43.7152 68.338Z" fill="url(#paint0_linear_5_36)" fill-opacity="0.2"/>
<path d="M43.7152 68.338C43.2947 68.0675 43.2945 68.0677 43.2944 68.0679L43.294 68.0685L43.2928 68.0705L43.2887 68.0769L43.2739 68.1003C43.2612 68.1206 43.2429 68.1499 43.2196 68.1882C43.1729 68.2646 43.1059 68.3766 43.0226 68.5214C42.8559 68.811 42.6239 69.2325 42.3588 69.7658C41.8291 70.8315 41.1653 72.3475 40.6284 74.1514C39.557 77.7509 38.9755 82.5511 41.0431 87.2031L41.0529 87.2251L41.0647 87.246L44.5623 93.4336L44.5626 93.4341L44.5632 93.4353L44.565 93.4384L44.5704 93.4478C44.5748 93.4554 44.5809 93.4658 44.5886 93.4788C44.6042 93.5049 44.6265 93.5414 44.6557 93.587C44.714 93.6784 44.8 93.8066 44.9149 93.9617C45.1444 94.2717 45.4903 94.6905 45.9619 95.1365C46.9055 96.0289 48.3588 97.0356 50.3914 97.4881C52.3899 97.9329 56.2071 97.9277 59.4601 97.8211C61.1004 97.7673 62.6193 97.6867 63.7279 97.6196C64.2823 97.586 64.7344 97.5558 65.0481 97.5339C65.205 97.523 65.3273 97.5142 65.4105 97.5081L65.5054 97.501L65.5298 97.4992L65.5361 97.4987L65.5377 97.4986L65.5381 97.4985C65.5382 97.4985 65.5383 97.4985 65.5 97L65.5383 97.4985L66.4155 97.4311L65.9087 96.712L60.8074 89.4735L60.658 89.2615H60.3987C60.0536 89.2615 59.5985 89.3015 59.1139 89.3441C58.9596 89.3576 58.8024 89.3715 58.6447 89.3843C57.9705 89.4394 57.2493 89.4819 56.572 89.4426C55.8886 89.4031 55.2961 89.2822 54.8562 89.043C54.4386 88.816 54.1512 88.4808 54.0444 87.9492L54.0205 87.8303L53.9457 87.7366L53.9456 87.7365L53.9453 87.7361L53.9451 87.7359L53.9448 87.7356L53.9441 87.7346L53.9339 87.7212C53.924 87.7082 53.9082 87.6869 53.8872 87.6574C53.8452 87.5983 53.7823 87.5062 53.7043 87.3812C53.5483 87.1312 53.3319 86.7494 53.1012 86.2359C52.64 85.2095 52.1208 83.655 51.9128 81.5709C51.7038 79.4773 51.9207 78.3523 52.2951 77.5598C52.4849 77.1582 52.7249 76.8209 53.0083 76.468C53.1019 76.3514 53.2052 76.2275 53.3136 76.0974C53.5186 75.8514 53.7421 75.5832 53.9544 75.2997C54.1973 74.9753 54.6022 74.7106 55.1284 74.5051C55.6495 74.3016 56.2483 74.1723 56.8267 74.0924C57.4027 74.0129 57.9429 73.9844 58.3401 73.9761C58.5382 73.9719 58.6994 73.9728 58.8103 73.9746C58.8657 73.9755 58.9084 73.9767 58.9367 73.9776L58.9682 73.9788L58.9754 73.9791L58.9768 73.9791L58.9769 73.9791L58.9769 73.9791L58.977 73.9791L58.9884 73.9797H59H69.9805L69.9958 73.9808C70.019 73.9826 70.0531 73.9851 70.0976 73.9882C70.1865 73.9945 70.3171 74.0031 70.4853 74.0129C70.8216 74.0323 71.3084 74.0562 71.9134 74.074C73.123 74.1096 74.8076 74.1211 76.7087 74.0246C80.493 73.8324 85.2049 73.2094 88.7239 71.4471C95.7208 67.943 99.4857 62.2176 99.9987 55.0356C100.08 53.9032 100.173 52.8968 100.259 51.9715C100.305 51.4682 100.35 50.9889 100.389 50.5264C100.499 49.225 100.564 48.0705 100.499 46.9706C100.368 44.7383 99.7035 42.7759 97.9096 40.2133C96.0914 37.6158 93.7544 36.1891 91.8787 35.413C90.9407 35.0248 90.1149 34.798 89.5211 34.6678C89.224 34.6027 88.9843 34.5617 88.8169 34.5367C88.7331 34.5242 88.6674 34.5158 88.6216 34.5103C88.5986 34.5076 88.5806 34.5056 88.5679 34.5043L88.5526 34.5027L88.5479 34.5023L88.5463 34.5022L88.5457 34.5021C88.5455 34.5021 88.5453 34.5021 88.5 35M43.7152 68.338C43.3353 68.0129 43.3354 68.0128 43.3355 68.0127L43.3358 68.0123L43.3369 68.0111L43.3403 68.0071L43.3528 67.9927C43.3585 67.9861 43.3657 67.9779 43.3742 67.9681C43.3816 67.9597 43.3901 67.9501 43.3995 67.9394C43.4403 67.8934 43.4999 67.8267 43.5772 67.7423C43.7319 67.5737 43.9574 67.3342 44.2436 67.0475C44.8156 66.4745 45.6334 65.71 46.6163 64.9443C48.5609 63.4293 51.2407 61.8394 53.9819 61.8394L74.4587 61.8394C77.8246 61.0651 79.7228 60.6198 81.2877 59.7172C82.8423 58.8205 84.0998 57.4501 86.0956 54.7059C87.0299 53.4213 87.6377 51.5714 88.0076 49.4681C88.3757 47.3741 88.5 45.0774 88.5 42.9375C88.5 40.7996 88.376 38.8302 88.2519 37.3946C88.1898 36.6772 88.1278 36.0941 88.0814 35.691C88.0582 35.4894 88.0389 35.3329 88.0255 35.2272C88.0188 35.1744 88.0135 35.1343 88.01 35.1075L88.0059 35.0776L88.005 35.0703L88.0047 35.0687L88.0047 35.0683L88.5 35M43.7152 68.338L43.2947 68.0675L43.3131 68.0388L43.3353 68.0129L43.7152 68.338ZM88.5 35L88.0047 35.0683L87.9187 34.4451L88.5453 34.5021L88.5 35Z" stroke="#F9C614"/>
</g>
<g filter="url(#filter2_ddf_5_36)">
<path d="M74 42C74 42 80 33 75.5 18.5L72.5 13C72.5 13 70 11 65.5 10C61 9 49.5 11 49.5 11L54.5 17C56.5 17 61.8507 15.7722 62.5 19C62.5 19 64.5 21.5 65 26.5C65.5 31.5 63.5 32.5 62 34.5C60.5 36.5 52 36 52 36H32C32 36 27.5 35 19.5 39C11.5 43 13 57.5 13 57.5C13 57.5 14.5 69.5 18 73C21.5 76.5 26 74.5 26 74.5C26 74.5 24 66 26 60C28 54 30.1149 50.8109 38 49H62C68 49 74 42 74 42Z" fill="#D9D9D9"/>
<path d="M74 42C74 42 80 33 75.5 18.5L72.5 13C72.5 13 70 11 65.5 10C61 9 49.5 11 49.5 11L54.5 17C56.5 17 61.8507 15.7722 62.5 19C62.5 19 64.5 21.5 65 26.5C65.5 31.5 63.5 32.5 62 34.5C60.5 36.5 52 36 52 36H32C32 36 27.5 35 19.5 39C11.5 43 13 57.5 13 57.5C13 57.5 14.5 69.5 18 73C21.5 76.5 26 74.5 26 74.5C26 74.5 24 66 26 60C28 54 30.1149 50.8109 38 49H62C68 49 74 42 74 42Z" fill="url(#paint1_linear_5_36)" fill-opacity="0.47"/>
<path d="M74 42C74 42 80 33 75.5 18.5L72.5 13C72.5 13 70 11 65.5 10C61 9 49.5 11 49.5 11L54.5 17C56.5 17 61.8507 15.7722 62.5 19C62.5 19 64.5 21.5 65 26.5C65.5 31.5 63.5 32.5 62 34.5C60.5 36.5 52 36 52 36H32C32 36 27.5 35 19.5 39C11.5 43 13 57.5 13 57.5C13 57.5 14.5 69.5 18 73C21.5 76.5 26 74.5 26 74.5C26 74.5 24 66 26 60C28 54 30.1149 50.8109 38 49H62C68 49 74 42 74 42Z" fill="url(#paint2_linear_5_36)" fill-opacity="0.2"/>
<path d="M74 42C74 42 80 33 75.5 18.5L72.5 13C72.5 13 70 11 65.5 10C61 9 49.5 11 49.5 11L54.5 17C56.5 17 61.8507 15.7722 62.5 19C62.5 19 64.5 21.5 65 26.5C65.5 31.5 63.5 32.5 62 34.5C60.5 36.5 52 36 52 36H32C32 36 27.5 35 19.5 39C11.5 43 13 57.5 13 57.5C13 57.5 14.5 69.5 18 73C21.5 76.5 26 74.5 26 74.5C26 74.5 24 66 26 60C28 54 30.1149 50.8109 38 49H62C68 49 74 42 74 42Z" stroke="black"/>
</g>
<defs>
<filter id="filter0_d_5_36" x="0" y="0" width="113" height="111" filterUnits="userSpaceOnUse" color-interpolation-filters="sRGB">
<feFlood flood-opacity="0" result="BackgroundImageFix"/>
<feColorMatrix in="SourceAlpha" type="matrix" values="0 0 0 0 0 0 0 0 0 0 0 0 0 0 0 0 0 0 127 0" result="hardAlpha"/>
<feOffset dy="2"/>
<feGaussianBlur stdDeviation="2"/>
<feComposite in2="hardAlpha" operator="out"/>
<feColorMatrix type="matrix" values="0 0 0 0 0.665 0 0 0 0 0.425378 0 0 0 0 0.144083 0 0 0 1 0"/>
<feBlend mode="normal" in2="BackgroundImageFix" result="effect1_dropShadow_5_36"/>
<feBlend mode="normal" in="SourceGraphic" in2="effect1_dropShadow_5_36" result="shape"/>
</filter>
<filter id="filter1_bi_5_36" x="29.1578" y="23.8902" width="81.867" height="84.4909" filterUnits="userSpaceOnUse" color-interpolation-filters="sRGB">
<feFlood flood-opacity="0" result="BackgroundImageFix"/>
<feGaussianBlur in="BackgroundImageFix" stdDeviation="5"/>
<feComposite in2="SourceAlpha" operator="in" result="effect1_backgroundBlur_5_36"/>
<feBlend mode="normal" in="SourceGraphic" in2="effect1_backgroundBlur_5_36" result="shape"/>
<feColorMatrix in="SourceAlpha" type="matrix" values="0 0 0 0 0 0 0 0 0 0 0 0 0 0 0 0 0 0 127 0" result="hardAlpha"/>
<feOffset dy="4"/>
<feGaussianBlur stdDeviation="2"/>
<feComposite in2="hardAlpha" operator="arithmetic" k2="-1" k3="1"/>
<feColorMatrix type="matrix" values="0 0 0 0 0.7825 0 0 0 0 0.581476 0 0 0 0 0.0645562 0 0 0 0.71 0"/>
<feBlend mode="normal" in2="shape" result="effect2_innerShadow_5_36"/>
</filter>
<filter id="filter2_ddf_5_36" x="8.38843" y="8.21998" width="73.2851" height="75.3489" filterUnits="userSpaceOnUse" color-interpolation-filters="sRGB">
<feFlood flood-opacity="0" result="BackgroundImageFix"/>
<feColorMatrix in="SourceAlpha" type="matrix" values="0 0 0 0 0 0 0 0 0 0 0 0 0 0 0 0 0 0 127 0" result="hardAlpha"/>
<feOffset dy="4"/>
<feGaussianBlur stdDeviation="2"/>
<feComposite in2="hardAlpha" operator="out"/>
<feColorMatrix type="matrix" values="0 0 0 0 0 0 0 0 0 0 0 0 0 0 0 0 0 0 0.25 0"/>
<feBlend mode="normal" in2="BackgroundImageFix" result="effect1_dropShadow_5_36"/>
<feColorMatrix in="SourceAlpha" type="matrix" values="0 0 0 0 0 0 0 0 0 0 0 0 0 0 0 0 0 0 127 0" result="hardAlpha"/>
<feOffset dy="4"/>
<feGaussianBlur stdDeviation="2"/>
<feComposite in2="hardAlpha" operator="out"/>
<feColorMatrix type="matrix" values="0 0 0 0 0 0 0 0 0 0 0 0 0 0 0 0 0 0 0.25 0"/>
<feBlend mode="normal" in2="effect1_dropShadow_5_36" result="effect2_dropShadow_5_36"/>
<feBlend mode="normal" in="SourceGraphic" in2="effect2_dropShadow_5_36" result="shape"/>
<feGaussianBlur stdDeviation="0.5" result="effect3_foregroundBlur_5_36"/>
</filter>
<linearGradient id="paint0_linear_5_36" x1="70.0913" y1="35" x2="70.0913" y2="97.3809" gradientUnits="userSpaceOnUse">
<stop offset="0.01" stop-color="#B98A12" stop-opacity="0"/>
<stop offset="0.5" stop-color="#B98A12"/>
<stop offset="0.74" stop-color="#B98A12"/>
<stop offset="0.84" stop-color="#B98A12"/>
<stop offset="0.955" stop-color="#B98A12" stop-opacity="0.564356"/>
</linearGradient>
<linearGradient id="paint1_linear_5_36" x1="45.031" y1="9.72" x2="45.031" y2="75.0689" gradientUnits="userSpaceOnUse">
<stop offset="0.401" stop-color="#CFAF06" stop-opacity="0"/>
<stop offset="0.606" stop-color="#CFAF06" stop-opacity="0.601001"/>
<stop offset="0.771" stop-color="#CFAF06" stop-opacity="0.601001"/>
<stop offset="1" stop-color="#CFAF06"/>
</linearGradient>
<linearGradient id="paint2_linear_5_36" x1="99" y1="-2.5" x2="77" y2="19.5" gradientUnits="userSpaceOnUse">
<stop offset="0.341" stop-opacity="0"/>
<stop offset="0.55" stop-opacity="0.04"/>
<stop offset="0.901" stop-color="#7B5306" stop-opacity="0.96"/>
</linearGradient>
</defs>
</svg>
