<svg width="125" height="125" viewBox="0 0 125 125" fill="none" xmlns="http://www.w3.org/2000/svg">
<g filter="url(#filter0_iiiii_6_51)">
<path fill-rule="evenodd" clip-rule="evenodd" d="M64.3332 105.654C42.7554 105.654 44.1032 95.5912 44.1032 95.5912V85.1646H64.7218V82.0334H35.9493C35.9493 82.0334 22.1429 83.716 22.1429 60.2968C22.1429 36.8777 34.1947 37.7092 34.1947 37.7092H41.3832V48.5775C41.1932 52.0282 42.3714 55.4046 44.6284 57.8777C46.8854 60.3508 50.0122 61.6913 53.2407 61.5701H73.6711C76.6965 61.4265 79.6431 62.6251 81.8153 64.8828C83.9874 67.1406 85.1926 70.2574 85.1461 73.4973V93.5189C85.1461 93.5189 86.8886 105.654 64.3332 105.654ZM52.9797 98.6445C54.4866 98.6523 55.8493 97.6871 56.4311 96.1997C57.0129 94.7123 56.699 92.9963 55.636 91.8533C54.5731 90.7103 52.9708 90.366 51.5779 90.9813C50.1849 91.5965 49.2761 93.0497 49.2761 94.6622C49.2729 95.716 49.6615 96.728 50.3562 97.475C51.0509 98.222 51.9948 98.6427 52.9797 98.6445ZM64.9586 14.7059C86.5364 14.7059 85.1886 24.7686 85.1886 24.7686V35.1952H64.57V38.3264H93.3425C93.3425 38.3264 107.143 36.6439 107.143 60.063C107.143 83.4821 95.0911 82.6506 95.0911 82.6506H87.9086V71.7823C88.0986 68.3316 86.9204 64.9552 84.6634 62.4821C82.4064 60.0091 79.2796 58.6685 76.0511 58.7897H55.6207C52.5953 58.9333 49.6487 57.7347 47.4765 55.477C45.3044 53.2192 44.0993 50.1024 44.1457 46.8625V26.8085C44.1457 26.8085 42.4032 14.7059 64.9586 14.7059ZM76.3122 21.7153C74.8052 21.7075 73.4425 22.6728 72.8607 24.1601C72.2789 25.6475 72.5928 27.3635 73.6558 28.5065C74.7188 29.6495 76.321 29.9938 77.714 29.3785C79.1069 28.7633 80.0157 27.3101 80.0157 25.6976C80.0189 24.6438 79.6304 23.6318 78.9356 22.8848C78.2409 22.1378 77.297 21.7171 76.3122 21.7153ZM59.1228 110.294C37.1046 110.294 38.48 100.026 38.48 100.026V89.3867H59.5194V86.1916H30.1597C30.1597 86.1916 16.0714 87.9085 16.0714 64.0114C16.0714 40.1144 28.3692 40.9629 28.3692 40.9629H35.7045V52.053C35.5106 55.5739 36.7128 59.0193 39.0159 61.5428C41.319 64.0665 44.5095 65.4343 47.8039 65.3107H68.6512C71.7384 65.1641 74.7451 66.3872 76.9616 68.691C79.1781 70.9948 80.4079 74.1752 80.3604 77.4813V97.9114C80.3604 97.9114 82.1385 110.294 59.1228 110.294ZM47.5376 103.142C49.0753 103.15 50.4657 102.165 51.0594 100.647C51.6531 99.1291 51.3328 97.3781 50.2481 96.2118C49.1634 95.0456 47.5286 94.6943 46.1072 95.322C44.6857 95.9498 43.7584 97.4328 43.7584 99.0781C43.7551 100.153 44.1516 101.186 44.8605 101.948C45.5694 102.711 46.5326 103.14 47.5376 103.142ZM59.7609 17.49C81.7791 17.49 80.4038 27.7581 80.4038 27.7581V38.3975H59.3645V41.5925H88.7242C88.7242 41.5925 102.806 39.8757 102.806 63.7727C102.806 87.6698 90.5084 86.8213 90.5084 86.8213H83.1793V75.7312C83.3732 72.2102 82.171 68.7648 79.8679 66.2413C77.5648 63.7177 74.3742 62.3499 71.0798 62.4735H50.2325C47.1455 62.62 44.1386 61.3969 41.9221 59.0932C39.7056 56.7893 38.4759 53.6089 38.5233 50.3029V29.8395C38.5233 29.8395 36.7453 17.49 59.7609 17.49ZM71.3463 24.6425C69.8085 24.6345 68.418 25.6195 67.8244 27.1372C67.2307 28.655 67.551 30.406 68.6356 31.5723C69.7203 32.7386 71.3553 33.0898 72.7767 32.4621C74.1981 31.8344 75.1254 30.3514 75.1254 28.706C75.1287 27.6307 74.7322 26.5981 74.0232 25.8359C73.3144 25.0736 72.3512 24.6443 71.3463 24.6425Z" fill="#BDBDBD" stroke="#091F58" stroke-width="20" stroke-linecap="round" stroke-linejoin="round"/>
</g>
<g filter="url(#filter1_iiiii_6_51)">
<path fill-rule="evenodd" clip-rule="evenodd" d="M66.2417 118.932C36.625 118.932 38.475 105.773 38.475 105.773V92.1383H66.775V88.0437H27.2834C27.2834 88.0437 8.33333 90.2439 8.33333 59.6189C8.33333 28.9939 24.875 30.0813 24.875 30.0813H34.7417V44.2937C34.4809 48.8061 36.098 53.2214 39.1959 56.4555C42.2937 59.6894 46.5854 61.4425 51.0167 61.284H79.0583C83.2108 61.0962 87.2553 62.6636 90.2367 65.616C93.218 68.5684 94.8722 72.6443 94.8083 76.8811V103.063C94.8083 103.063 97.2 118.932 66.2417 118.932ZM50.6584 109.766C52.7267 109.776 54.597 108.514 55.3956 106.569C56.1942 104.624 55.7634 102.38 54.3043 100.885C52.8454 99.3904 50.6462 98.9402 48.7343 99.7448C46.8224 100.549 45.575 102.45 45.575 104.558C45.5706 105.936 46.104 107.26 47.0575 108.237C48.0111 109.213 49.3066 109.763 50.6584 109.766ZM67.1 -5.96046e-06C96.7167 -5.96046e-06 94.8667 13.159 94.8667 13.159V26.7937H66.5667V30.8883H106.058C106.058 30.8883 125 28.6881 125 59.3131C125 89.9381 108.458 88.8507 108.458 88.8507H98.6V74.6383C98.8608 70.126 97.2437 65.7107 94.1458 62.4766C91.048 59.2426 86.7563 57.4896 82.325 57.6481H54.2834C50.1309 57.8358 46.0865 56.2684 43.105 53.316C40.1237 50.3636 38.4696 46.2877 38.5334 42.051V15.8265C38.5334 15.8265 36.1417 -5.96046e-06 67.1 -5.96046e-06ZM82.6834 9.16614C80.615 9.15594 78.7447 10.4182 77.9461 12.3632C77.1475 14.3082 77.5784 16.5523 79.0374 18.047C80.4963 19.5416 82.6955 19.9919 84.6074 19.1873C86.5193 18.3828 87.7667 16.4824 87.7667 14.3738C87.7711 12.9957 87.2378 11.6723 86.2842 10.6955C85.3306 9.71869 84.0351 9.16844 82.6834 9.16614ZM59.0901 125C28.8691 125 30.7568 111.572 30.7568 111.572V97.6595H59.6344V93.4813H19.3368C19.3368 93.4813 0 95.7265 0 64.4765C0 33.2265 16.8793 34.336 16.8793 34.336H26.9473V48.8385C26.6812 53.4428 28.3313 57.9483 31.4924 61.2483C34.6535 64.5484 39.0326 66.3371 43.5544 66.1755H72.1684C76.4056 65.9839 80.5325 67.5833 83.5748 70.5959C86.617 73.6086 88.3049 77.7676 88.2398 82.0909V108.807C88.2398 108.807 90.6803 125 59.0901 125ZM43.1888 115.647C45.2994 115.657 47.2079 114.369 48.0228 112.384C48.8376 110.4 48.398 108.11 46.9092 106.585C45.4204 105.06 43.1765 104.6 41.2255 105.421C39.2745 106.242 38.0017 108.181 38.0017 110.333C37.9972 111.739 38.5415 113.089 39.5144 114.086C40.4874 115.083 41.8094 115.644 43.1888 115.647ZM59.966 3.64077C90.187 3.64077 88.2993 17.0683 88.2993 17.0683V30.9813H59.4218V35.1595H99.7194C99.7194 35.1595 119.048 32.9143 119.048 64.1643C119.048 95.4143 102.168 94.3047 102.168 94.3047H92.1088V79.8023C92.375 75.1979 90.7249 70.6925 87.5638 67.3925C84.4026 64.0923 80.0235 62.3036 75.5017 62.4653H46.8878C42.6506 62.6569 38.5236 61.0575 35.4813 58.0449C32.4391 55.0322 30.7512 50.8732 30.8163 46.5499V19.7902C30.8163 19.7902 28.3759 3.64077 59.966 3.64077ZM75.8674 12.994C73.7568 12.9836 71.8482 14.2716 71.0335 16.2563C70.2186 18.2411 70.6582 20.5309 72.1469 22.0561C73.6357 23.5812 75.8798 24.0405 77.8307 23.2197C79.7817 22.3988 81.0544 20.4595 81.0544 18.3079C81.0589 16.9017 80.5148 15.5513 79.5417 14.5546C78.5687 13.5578 77.2468 12.9964 75.8674 12.994Z" fill="#E4B200"/>
</g>
<defs>
<filter id="filter0_iiiii_6_51" x="6.07143" y="4.70589" width="111.071" height="121.588" filterUnits="userSpaceOnUse" color-interpolation-filters="sRGB">
<feFlood flood-opacity="0" result="BackgroundImageFix"/>
<feBlend mode="normal" in="SourceGraphic" in2="BackgroundImageFix" result="shape"/>
<feColorMatrix in="SourceAlpha" type="matrix" values="0 0 0 0 0 0 0 0 0 0 0 0 0 0 0 0 0 0 127 0" result="hardAlpha"/>
<feOffset dy="12"/>
<feGaussianBlur stdDeviation="3"/>
<feComposite in2="hardAlpha" operator="arithmetic" k2="-1" k3="1"/>
<feColorMatrix type="matrix" values="0 0 0 0 0 0 0 0 0 0 0 0 0 0 0 0 0 0 0.25 0"/>
<feBlend mode="normal" in2="shape" result="effect1_innerShadow_6_51"/>
<feColorMatrix in="SourceAlpha" type="matrix" values="0 0 0 0 0 0 0 0 0 0 0 0 0 0 0 0 0 0 127 0" result="hardAlpha"/>
<feOffset dy="4"/>
<feGaussianBlur stdDeviation="2"/>
<feComposite in2="hardAlpha" operator="arithmetic" k2="-1" k3="1"/>
<feColorMatrix type="matrix" values="0 0 0 0 0 0 0 0 0 0 0 0 0 0 0 0 0 0 0.25 0"/>
<feBlend mode="normal" in2="effect1_innerShadow_6_51" result="effect2_innerShadow_6_51"/>
<feColorMatrix in="SourceAlpha" type="matrix" values="0 0 0 0 0 0 0 0 0 0 0 0 0 0 0 0 0 0 127 0" result="hardAlpha"/>
<feOffset dy="4"/>
<feGaussianBlur stdDeviation="2"/>
<feComposite in2="hardAlpha" operator="arithmetic" k2="-1" k3="1"/>
<feColorMatrix type="matrix" values="0 0 0 0 0 0 0 0 0 0 0 0 0 0 0 0 0 0 0.25 0"/>
<feBlend mode="normal" in2="effect2_innerShadow_6_51" result="effect3_innerShadow_6_51"/>
<feColorMatrix in="SourceAlpha" type="matrix" values="0 0 0 0 0 0 0 0 0 0 0 0 0 0 0 0 0 0 127 0" result="hardAlpha"/>
<feOffset dy="4"/>
<feGaussianBlur stdDeviation="2"/>
<feComposite in2="hardAlpha" operator="arithmetic" k2="-1" k3="1"/>
<feColorMatrix type="matrix" values="0 0 0 0 0 0 0 0 0 0 0 0 0 0 0 0 0 0 0.25 0"/>
<feBlend mode="normal" in2="effect3_innerShadow_6_51" result="effect4_innerShadow_6_51"/>
<feColorMatrix in="SourceAlpha" type="matrix" values="0 0 0 0 0 0 0 0 0 0 0 0 0 0 0 0 0 0 127 0" result="hardAlpha"/>
<feOffset dy="4"/>
<feGaussianBlur stdDeviation="2"/>
<feComposite in2="hardAlpha" operator="arithmetic" k2="-1" k3="1"/>
<feColorMatrix type="matrix" values="0 0 0 0 0.525833 0 0 0 0 0.451516 0 0 0 0 0.409712 0 0 0 1 0"/>
<feBlend mode="normal" in2="effect4_innerShadow_6_51" result="effect5_innerShadow_6_51"/>
</filter>
<filter id="filter1_iiiii_6_51" x="0" y="-7.62939e-06" width="125" height="131" filterUnits="userSpaceOnUse" color-interpolation-filters="sRGB">
<feFlood flood-opacity="0" result="BackgroundImageFix"/>
<feBlend mode="normal" in="SourceGraphic" in2="BackgroundImageFix" result="shape"/>
<feColorMatrix in="SourceAlpha" type="matrix" values="0 0 0 0 0 0 0 0 0 0 0 0 0 0 0 0 0 0 127 0" result="hardAlpha"/>
<feOffset dy="12"/>
<feGaussianBlur stdDeviation="3"/>
<feComposite in2="hardAlpha" operator="arithmetic" k2="-1" k3="1"/>
<feColorMatrix type="matrix" values="0 0 0 0 0 0 0 0 0 0 0 0 0 0 0 0 0 0 0.25 0"/>
<feBlend mode="normal" in2="shape" result="effect1_innerShadow_6_51"/>
<feColorMatrix in="SourceAlpha" type="matrix" values="0 0 0 0 0 0 0 0 0 0 0 0 0 0 0 0 0 0 127 0" result="hardAlpha"/>
<feOffset dy="4"/>
<feGaussianBlur stdDeviation="2"/>
<feComposite in2="hardAlpha" operator="arithmetic" k2="-1" k3="1"/>
<feColorMatrix type="matrix" values="0 0 0 0 0 0 0 0 0 0 0 0 0 0 0 0 0 0 0.25 0"/>
<feBlend mode="normal" in2="effect1_innerShadow_6_51" result="effect2_innerShadow_6_51"/>
<feColorMatrix in="SourceAlpha" type="matrix" values="0 0 0 0 0 0 0 0 0 0 0 0 0 0 0 0 0 0 127 0" result="hardAlpha"/>
<feOffset dy="4"/>
<feGaussianBlur stdDeviation="2"/>
<feComposite in2="hardAlpha" operator="arithmetic" k2="-1" k3="1"/>
<feColorMatrix type="matrix" values="0 0 0 0 0 0 0 0 0 0 0 0 0 0 0 0 0 0 0.25 0"/>
<feBlend mode="normal" in2="effect2_innerShadow_6_51" result="effect3_innerShadow_6_51"/>
<feColorMatrix in="SourceAlpha" type="matrix" values="0 0 0 0 0 0 0 0 0 0 0 0 0 0 0 0 0 0 127 0" result="hardAlpha"/>
<feOffset dy="4"/>
<feGaussianBlur stdDeviation="2"/>
<feComposite in2="hardAlpha" operator="arithmetic" k2="-1" k3="1"/>
<feColorMatrix type="matrix" values="0 0 0 0 0 0 0 0 0 0 0 0 0 0 0 0 0 0 0.25 0"/>
<feBlend mode="normal" in2="effect3_innerShadow_6_51" result="effect4_innerShadow_6_51"/>
<feColorMatrix in="SourceAlpha" type="matrix" values="0 0 0 0 0 0 0 0 0 0 0 0 0 0 0 0 0 0 127 0" result="hardAlpha"/>
<feOffset dy="4"/>
<feGaussianBlur stdDeviation="2"/>
<feComposite in2="hardAlpha" operator="arithmetic" k2="-1" k3="1"/>
<feColorMatrix type="matrix" values="0 0 0 0 0.525833 0 0 0 0 0.451516 0 0 0 0 0.409712 0 0 0 1 0"/>
<feBlend mode="normal" in2="effect4_innerShadow_6_51" result="effect5_innerShadow_6_51"/>
</filter>
</defs>
</svg>
