<svg width="113" height="111" viewBox="0 0 113 111" fill="none" xmlns="http://www.w3.org/2000/svg">
<g filter="url(#filter0_d_5_36)">
<path fill-rule="evenodd" clip-rule="evenodd" d="M59.643 7C34.765 7 36.319 17.843 36.319 17.843V29.078H60.091V32.452H26.918C26.918 32.452 11 30.639 11 55.874C11 81.109 24.895 80.213 24.895 80.213H33.183V68.502C32.9639 64.7838 34.3223 61.1456 36.9245 58.4807C39.5267 55.8159 43.1317 54.3714 46.854 54.502H70.409C73.8971 54.6567 77.2944 53.3652 79.7988 50.9324C82.3031 48.4996 83.6926 45.1411 83.639 41.65V20.076C83.639 20.076 85.648 7 59.643 7ZM46.553 14.5529C48.2904 14.5445 49.8615 15.5846 50.5323 17.1873C51.2031 18.79 50.8412 20.6391 49.6156 21.8707C48.3901 23.1023 46.5428 23.4733 44.9368 22.8103C43.3308 22.1474 42.283 20.5815 42.283 18.844C42.2793 17.7085 42.7273 16.618 43.5283 15.8131C44.3293 15.0082 45.4175 14.5549 46.553 14.5529ZM60.364 105C85.242 105 83.688 94.157 83.688 94.157V82.922H59.916V79.548H93.089C93.089 79.548 109 81.361 109 56.126C109 30.891 95.105 31.787 95.105 31.787H86.824V43.498C87.0431 47.2162 85.6847 50.8544 83.0825 53.5193C80.4803 56.1841 76.8753 57.6286 73.153 57.498H49.598C46.1099 57.3433 42.7126 58.6348 40.2082 61.0676C37.7039 63.5004 36.3144 66.8589 36.368 70.35V91.959C36.368 91.959 34.359 105 60.364 105ZM73.454 97.4471C71.7166 97.4555 70.1455 96.4154 69.4747 94.8127C68.8039 93.21 69.1658 91.3609 70.3914 90.1293C71.6169 88.8977 73.4642 88.5267 75.0702 89.1897C76.6762 89.8526 77.724 91.4185 77.724 93.156C77.7277 94.2915 77.2797 95.382 76.4787 96.1869C75.6777 96.9918 74.5895 97.4452 73.454 97.4471ZM53.6357 2C28.25 2 29.8357 13.0643 29.8357 13.0643V24.5286H54.0929V27.9714H20.2429C20.2429 27.9714 4 26.1214 4 51.8714C4 77.6214 18.1786 76.7071 18.1786 76.7071H26.6357V64.7571C26.4122 60.9631 27.7983 57.2506 30.4536 54.5314C33.1089 51.8121 36.7874 50.3382 40.5857 50.4714H64.6214C68.1807 50.6293 71.6473 49.3114 74.2028 46.829C76.7583 44.3465 78.1761 40.9195 78.1214 37.3571V15.3429C78.1214 15.3429 80.1714 2 53.6357 2ZM40.2786 9.70709C42.0515 9.69847 43.6546 10.7598 44.3391 12.3952C45.0236 14.0307 44.6543 15.9175 43.4037 17.1742C42.1531 18.4309 40.2682 18.8094 38.6294 18.133C36.9906 17.4566 35.9214 15.8586 35.9214 14.0857C35.9176 12.927 36.3748 11.8143 37.1921 10.993C38.0094 10.1716 39.1199 9.70903 40.2786 9.70709ZM54.3714 102C79.7571 102 78.1714 90.9357 78.1714 90.9357V79.4714H53.9143V76.0286H87.7643C87.7643 76.0286 104 77.8786 104 52.1286C104 26.3786 89.8214 27.2929 89.8214 27.2929H81.3714V39.2429C81.595 43.0369 80.2089 46.7494 77.5536 49.4686C74.8982 52.1879 71.2197 53.6618 67.4214 53.5286H43.3857C39.8265 53.3707 36.3598 54.6886 33.8043 57.171C31.2488 59.6535 29.831 63.0805 29.8857 66.6429V88.6929C29.8857 88.6929 27.8357 102 54.3714 102ZM67.7286 94.2929C65.9557 94.3015 64.3525 93.2402 63.6681 91.6048C62.9836 89.9693 63.3529 88.0825 64.6034 86.8258C65.854 85.5691 67.739 85.1906 69.3778 85.867C71.0166 86.5434 72.0857 88.1414 72.0857 89.9143C72.0895 91.073 71.6324 92.1857 70.815 93.007C69.9977 93.8284 68.8873 94.291 67.7286 94.2929Z" fill="#D59A25"/>
</g>
<g filter="url(#filter1_bi_5_36)">
<path d="M41 75C40.5 79 40.5 81.6206 41 85.5C41.5 89.3794 43.5 92.5 44.5 93.5C45.5 94.5 47.5652 96.1431 51.4152 97C55.2653 97.8569 65.5 97 65.5 97L60.3987 89.7615C58.6875 89.7615 55.1083 89.5952 53.5542 88.0476C52 86.5 51.8305 85.7411 51.4152 81.6206C51 77.5 52.1083 76.5203 53.5542 75C55 73.4796 59 73.4796 59 73.4796H70C70 73.4796 81.6555 74.4278 88.5 71C95.3445 67.5722 99 62 99.5 55C100 48 101 45.5 97.5 40.5C94 35.5 88.5 35 88.5 35C88.5 35 90.5 49.5 86.5 55C82.5 60.5 81.2616 60.7876 74.5155 62.3394L53.9819 62.3394C41.5 64 41.5 71 41 75Z" fill="#D9D9D9"/>
<path d="M41 75C40.5 79 40.5 81.6206 41 85.5C41.5 89.3794 43.5 92.5 44.5 93.5C45.5 94.5 47.5652 96.1431 51.4152 97C55.2653 97.8569 65.5 97 65.5 97L60.3987 89.7615C58.6875 89.7615 55.1083 89.5952 53.5542 88.0476C52 86.5 51.8305 85.7411 51.4152 81.6206C51 77.5 52.1083 76.5203 53.5542 75C55 73.4796 59 73.4796 59 73.4796H70C70 73.4796 81.6555 74.4278 88.5 71C95.3445 67.5722 99 62 99.5 55C100 48 101 45.5 97.5 40.5C94 35.5 88.5 35 88.5 35C88.5 35 90.5 49.5 86.5 55C82.5 60.5 81.2616 60.7876 74.5155 62.3394L53.9819 62.3394C41.5 64 41.5 71 41 75Z" fill="url(#paint0_linear_5_36)" fill-opacity="0.2"/>
<path d="M88.5 35L88.0047 35.0683L88.0047 35.0687L88.005 35.0703L88.0059 35.0776L88.01 35.1075C88.0135 35.1343 88.0188 35.1744 88.0255 35.2272C88.0389 35.3329 88.0582 35.4894 88.0814 35.691C88.1278 36.0941 88.1898 36.6772 88.2519 37.3946C88.376 38.8302 88.5 40.7996 88.5 42.9375C88.5 45.0774 88.3757 47.3741 88.0076 49.4681C87.6377 51.5714 87.0299 53.4213 86.0956 54.7059C84.0998 57.4501 82.8423 58.8205 81.2877 59.7172C79.7228 60.6198 77.8246 61.0651 74.4587 61.8394L53.9819 61.8394H53.9488L53.916 61.8438C47.5817 62.6865 44.3072 64.902 42.5805 67.5169C41.0818 69.7867 40.8012 72.3009 40.5894 74.1997C40.5606 74.4579 40.533 74.7047 40.5039 74.938C39.9988 78.9785 39.9986 81.6414 40.5041 85.5639C41.0185 89.5547 43.0695 92.7767 44.1464 93.8536C45.2046 94.9117 47.3521 96.6079 51.3066 97.4881C53.3049 97.9328 56.8915 97.9277 59.919 97.821C61.4454 97.7673 62.8503 97.6866 63.8734 97.6194C64.3851 97.5858 64.8016 97.5556 65.0905 97.5337C65.2349 97.5228 65.3474 97.5139 65.424 97.5078L65.5113 97.5008L65.5338 97.4989L65.5396 97.4984L65.5411 97.4983L65.5415 97.4983C65.5416 97.4983 65.5417 97.4983 65.5 97L65.5417 97.4983L66.4115 97.4254L65.9087 96.712L60.8074 89.4735L60.658 89.2615H60.3987C59.5554 89.2615 58.2667 89.2202 57.0063 88.9928C55.7245 88.7616 54.5709 88.3544 53.907 87.6933C53.1599 86.9494 52.7885 86.4392 52.5337 85.646C52.2647 84.8088 52.1221 83.6478 51.9127 81.5704C51.7095 79.5534 51.8869 78.3734 52.2466 77.5316C52.5846 76.7406 53.0972 76.2034 53.7643 75.5042C53.8142 75.452 53.8649 75.3988 53.9165 75.3446C54.2038 75.0424 54.6452 74.7908 55.1884 74.59C55.726 74.3913 56.3273 74.2553 56.8987 74.1633C57.4683 74.0717 57.9962 74.0256 58.3822 74.0025C58.5749 73.991 58.7312 73.9853 58.8385 73.9824C58.8922 73.981 58.9335 73.9803 58.961 73.98L58.9915 73.9797L58.9986 73.9797L59 73.9796H59.0002H69.9805L69.9958 73.9808C70.019 73.9826 70.0531 73.9851 70.0976 73.9882C70.1865 73.9945 70.3171 74.0031 70.4853 74.0129C70.8216 74.0323 71.3084 74.0562 71.9134 74.074C73.123 74.1096 74.8076 74.1211 76.7087 74.0246C80.493 73.8324 85.2049 73.2094 88.7239 71.4471C95.7208 67.943 99.4857 62.2176 99.9987 55.0356C100.08 53.9032 100.173 52.8968 100.259 51.9715C100.305 51.4682 100.35 50.9889 100.389 50.5264C100.499 49.225 100.564 48.0705 100.499 46.9706C100.368 44.7383 99.7035 42.7759 97.9096 40.2133C96.0914 37.6158 93.7544 36.1891 91.8787 35.413C90.9407 35.0248 90.1149 34.798 89.5211 34.6678C89.224 34.6027 88.9843 34.5617 88.8169 34.5367C88.7331 34.5242 88.6674 34.5158 88.6216 34.5103C88.5986 34.5076 88.5806 34.5056 88.5679 34.5043L88.5526 34.5027L88.5479 34.5023L88.5463 34.5022L88.5457 34.5021C88.5455 34.5021 88.5453 34.5021 88.5 35ZM88.5 35L88.0047 35.0683L87.9187 34.4451L88.5453 34.5021L88.5 35Z" stroke="#F9C614"/>
</g>
<g filter="url(#filter2_d_5_36)">
<path d="M74 42C74 42 80 33 75.5 18.5L72.5 13C72.5 13 70 11 65.5 10C61 9 49.5 11 49.5 11L54.5 17C56.5 17 61.8507 15.7722 62.5 19C62.5 19 64.5 21.5 65 26.5C65.5 31.5 63.5 32.5 62 34.5C60.5 36.5 52 36 52 36H32C32 36 23 36 18 44C13 52 14 60 14 60C14 60 14.5 69.5 18 73C21.5 76.5 26 74.5 26 74.5C26 74.5 24 66 26 60C28 54 30.1149 50.8109 38 49H62C68 49 74 42 74 42Z" fill="url(#paint1_linear_5_36)" shape-rendering="crispEdges"/>
<path d="M72.1121 13.333L75.0372 18.6956C77.2421 25.8311 76.8679 31.5988 75.9503 35.5751C75.4901 37.5692 74.8927 39.115 74.4129 40.1583C74.173 40.6799 73.9627 41.0757 73.8139 41.3387C73.7394 41.4703 73.6804 41.5686 73.6407 41.6329C73.623 41.6616 73.6091 41.6836 73.5995 41.6986C73.5891 41.7105 73.5748 41.7268 73.5569 41.7471C73.5133 41.7962 73.448 41.8692 73.3622 41.9626C73.1907 42.1494 72.9378 42.4176 72.6152 42.7402C71.9695 43.3859 71.0476 44.2462 69.943 45.1053C67.7127 46.84 64.8257 48.5 62 48.5H38H37.9433L37.8881 48.5127C33.8954 49.4296 31.2944 50.7109 29.4386 52.5765C27.5888 54.436 26.5307 56.8268 25.5257 59.8419C24.493 62.94 24.5001 66.6472 24.7519 69.5433C24.8784 70.9983 25.0681 72.263 25.2263 73.1645C25.301 73.5902 25.3687 73.9353 25.4196 74.1819C25.3297 74.2113 25.2253 74.2435 25.108 74.2762C24.6593 74.4012 24.0265 74.5335 23.2925 74.5629C21.8303 74.6214 19.9802 74.2731 18.3536 72.6465C17.5481 71.841 16.8916 70.6631 16.3643 69.3106C15.8393 67.9639 15.4556 66.4787 15.1778 65.0894C14.9003 63.7018 14.7304 62.4205 14.63 61.4857C14.5798 61.0186 14.547 60.6389 14.5268 60.3767C14.5168 60.2456 14.5098 60.144 14.5054 60.0755L14.5007 59.9983L14.4996 59.9792L14.4994 59.9748L14.4993 59.9738L14.4993 59.9737L14.4993 59.9737L14.4984 59.9558L14.4962 59.9383L14.4962 59.9382L14.4961 59.938L14.4958 59.935L14.4941 59.9206C14.4926 59.9072 14.4903 59.8863 14.4875 59.8581C14.4818 59.8016 14.4739 59.716 14.4654 59.6032C14.4485 59.3776 14.4294 59.0434 14.4218 58.6161C14.4065 57.7612 14.437 56.5352 14.6211 55.062C14.9896 52.1145 15.9718 48.1886 18.424 44.265C20.8479 40.3867 24.2402 38.4458 27.0393 37.4722C28.4392 36.9853 29.687 36.7419 30.5828 36.6205C31.0304 36.5598 31.3892 36.5296 31.634 36.5147C31.7564 36.5072 31.8502 36.5035 31.9122 36.5017C31.9433 36.5008 31.9664 36.5004 31.9811 36.5002L31.997 36.5L32 36.5H32.0001H32.0005H51.9859L51.997 36.5006L52.0705 36.5045C52.1346 36.5077 52.2281 36.5122 52.3474 36.5171C52.586 36.527 52.9276 36.5389 53.342 36.5468C54.1699 36.5626 55.2922 36.5626 56.4645 36.4993C57.6331 36.4361 58.8692 36.309 59.9179 36.0651C60.4424 35.9432 60.9344 35.7888 61.3533 35.5907C61.7678 35.3948 62.1448 35.1403 62.4 34.8C62.6671 34.4439 62.9461 34.1263 63.2374 33.7946C63.3403 33.6775 63.4446 33.5587 63.5506 33.4358C63.9482 32.9746 64.3496 32.4753 64.6871 31.8678C65.3729 30.6333 65.755 29.0256 65.4975 26.4502C65.2417 23.8919 64.6011 21.9646 64.0185 20.6698C63.7272 20.0227 63.4507 19.534 63.2443 19.2037C63.1411 19.0386 63.0554 18.913 62.9941 18.827C62.9837 18.8124 62.974 18.799 62.965 18.7866C62.7505 17.883 62.2067 17.2722 61.4958 16.8863C60.7776 16.4965 59.9002 16.3404 59.0354 16.2904C58.1645 16.24 57.2591 16.2952 56.4618 16.3602C56.2518 16.3774 56.0515 16.3949 55.8618 16.4115C55.425 16.4498 55.0445 16.4831 54.7302 16.4952L50.4437 11.3515C50.7204 11.3075 51.0565 11.2552 51.4412 11.1976C52.5851 11.0264 54.1564 10.8086 55.8667 10.6221C57.5781 10.4354 59.4228 10.2806 61.1152 10.2342C62.8169 10.1876 64.3289 10.252 65.3915 10.4881C67.5918 10.977 69.3001 11.7098 70.4546 12.3175C71.0318 12.6212 71.4701 12.8935 71.7617 13.0879C71.9075 13.1851 72.0165 13.2628 72.0879 13.3152C72.0965 13.3215 72.1046 13.3274 72.1121 13.333Z" stroke="url(#paint2_linear_5_36)" stroke-opacity="0.59" shape-rendering="crispEdges"/>
</g>
<defs>
<filter id="filter0_d_5_36" x="0" y="0" width="113" height="111" filterUnits="userSpaceOnUse" color-interpolation-filters="sRGB">
<feFlood flood-opacity="0" result="BackgroundImageFix"/>
<feColorMatrix in="SourceAlpha" type="matrix" values="0 0 0 0 0 0 0 0 0 0 0 0 0 0 0 0 0 0 127 0" result="hardAlpha"/>
<feOffset dy="2"/>
<feGaussianBlur stdDeviation="2"/>
<feComposite in2="hardAlpha" operator="out"/>
<feColorMatrix type="matrix" values="0 0 0 0 0.665 0 0 0 0 0.425378 0 0 0 0 0.144083 0 0 0 1 0"/>
<feBlend mode="normal" in2="BackgroundImageFix" result="effect1_dropShadow_5_36"/>
<feBlend mode="normal" in="SourceGraphic" in2="effect1_dropShadow_5_36" result="shape"/>
</filter>
<filter id="filter1_bi_5_36" x="29.625" y="23.8902" width="81.3998" height="84.4909" filterUnits="userSpaceOnUse" color-interpolation-filters="sRGB">
<feFlood flood-opacity="0" result="BackgroundImageFix"/>
<feGaussianBlur in="BackgroundImageFix" stdDeviation="5"/>
<feComposite in2="SourceAlpha" operator="in" result="effect1_backgroundBlur_5_36"/>
<feBlend mode="normal" in="SourceGraphic" in2="effect1_backgroundBlur_5_36" result="shape"/>
<feColorMatrix in="SourceAlpha" type="matrix" values="0 0 0 0 0 0 0 0 0 0 0 0 0 0 0 0 0 0 127 0" result="hardAlpha"/>
<feOffset dy="4"/>
<feGaussianBlur stdDeviation="2"/>
<feComposite in2="hardAlpha" operator="arithmetic" k2="-1" k3="1"/>
<feColorMatrix type="matrix" values="0 0 0 0 0.7825 0 0 0 0 0.581476 0 0 0 0 0.0645562 0 0 0 0.71 0"/>
<feBlend mode="normal" in2="shape" result="effect2_innerShadow_5_36"/>
</filter>
<filter id="filter2_d_5_36" x="9.91837" y="9.72" width="71.2552" height="73.3489" filterUnits="userSpaceOnUse" color-interpolation-filters="sRGB">
<feFlood flood-opacity="0" result="BackgroundImageFix"/>
<feColorMatrix in="SourceAlpha" type="matrix" values="0 0 0 0 0 0 0 0 0 0 0 0 0 0 0 0 0 0 127 0" result="hardAlpha"/>
<feOffset dy="4"/>
<feGaussianBlur stdDeviation="2"/>
<feComposite in2="hardAlpha" operator="out"/>
<feColorMatrix type="matrix" values="0 0 0 0 0 0 0 0 0 0 0 0 0 0 0 0 0 0 0.25 0"/>
<feBlend mode="normal" in2="BackgroundImageFix" result="effect1_dropShadow_5_36"/>
<feBlend mode="normal" in="SourceGraphic" in2="effect1_dropShadow_5_36" result="shape"/>
</filter>
<linearGradient id="paint0_linear_5_36" x1="70.0913" y1="35" x2="70.0913" y2="97.3809" gradientUnits="userSpaceOnUse">
<stop offset="0.01" stop-color="#B98A12" stop-opacity="0"/>
<stop offset="0.5" stop-color="#B98A12"/>
<stop offset="0.74" stop-color="#B98A12"/>
<stop offset="0.84" stop-color="#B98A12"/>
<stop offset="0.955" stop-color="#B98A12" stop-opacity="0.564356"/>
</linearGradient>
<linearGradient id="paint1_linear_5_36" x1="16" y1="75" x2="75" y2="9" gradientUnits="userSpaceOnUse">
<stop offset="0.111" stop-color="#949191" stop-opacity="0.37"/>
<stop offset="0.491" stop-color="#D0CDCD" stop-opacity="0.8"/>
<stop offset="1" stop-color="#FAF5F5"/>
</linearGradient>
<linearGradient id="paint2_linear_5_36" x1="77" y1="10" x2="13" y2="75" gradientUnits="userSpaceOnUse">
<stop offset="0.605" stop-color="#FDA700"/>
<stop offset="1" stop-color="#976400" stop-opacity="0"/>
</linearGradient>
</defs>
</svg>
