<svg width="113" height="109" viewBox="0 0 113 109" fill="none" xmlns="http://www.w3.org/2000/svg">
<g filter="url(#filter0_biiii_5_41)">
<path fill-rule="evenodd" clip-rule="evenodd" d="M56.5 109C87.7041 109 113 84.5995 113 54.5C113 24.4005 87.7041 0 56.5 0C25.2959 0 0 24.4005 0 54.5C0 84.5995 25.2959 109 56.5 109ZM41.0239 11.0606C44.4545 9.33113 49.9263 8 58.643 8C66.8484 8 72.2647 9.30184 75.8351 11.084C77.4986 13.8879 77.1214 16.3429 77.1214 16.3429V38.3571C77.1761 41.9195 75.7583 45.3465 73.2028 47.829C70.6473 50.3114 67.1807 51.6293 63.6214 51.4714H39.5857C35.7874 51.3382 32.1089 52.8121 29.4536 55.5314C26.7983 58.2506 25.4122 61.9631 25.6357 65.7571V77.7071H17.1786C17.1786 77.7071 16.7402 77.7354 16.0177 77.642C12.88 74.4352 10 68.3627 10 56.874C10 31.639 25.918 33.452 25.918 33.452H59.091V30.078H35.319V28.9714H53.0929V25.5286H35.319V18.843C35.319 18.843 35.2241 18.1807 35.4567 17.1836C35.927 18.0448 36.6833 18.7425 37.6294 19.133C38.8642 19.6427 40.2388 19.5534 41.3764 18.9408C41.3138 19.2355 41.282 19.5381 41.283 19.844C41.283 21.5815 42.3308 23.1474 43.9368 23.8103C45.5428 24.4733 47.3901 24.1023 48.6156 22.8707C49.8412 21.6391 50.2031 19.79 49.5323 18.1873C48.8615 16.5846 47.2904 15.5445 45.553 15.5529C44.8567 15.5541 44.1782 15.7251 43.5727 16.0427C43.7669 15.1756 43.6973 14.251 43.3391 13.3952C42.891 12.3246 42.0492 11.5 41.0239 11.0606ZM43.5727 16.0427C43.1909 16.2431 42.8381 16.5018 42.5283 16.8131C41.9431 17.4012 41.5463 18.1417 41.3764 18.9408C41.7486 18.7404 42.0954 18.484 42.4037 18.1742C42.9999 17.5751 43.3958 16.8327 43.5727 16.0427ZM41.0239 11.0606C37.083 13.0473 35.8355 15.5596 35.4567 17.1836C35.1124 16.5531 34.9214 15.835 34.9214 15.0857C34.9176 13.927 35.3748 12.8143 36.1921 11.993C37.0094 11.1716 38.1199 10.709 39.2786 10.7071C39.8909 10.7041 40.4829 10.8288 41.0239 11.0606ZM35.319 25.5286V28.9714H19.2429C19.2429 28.9714 3 27.1214 3 52.8714C3 74.0937 12.6308 77.2042 16.0177 77.642C19.7719 81.4789 23.895 81.213 23.895 81.213H28.8857V89.6929C28.8857 89.6929 27.6472 97.7322 39.5559 101.314C42.8919 103.86 48.8292 106 59.364 106C84.242 106 82.688 95.157 82.688 95.157V83.922H77.1714V80.548H92.089C92.089 80.548 108 82.361 108 57.126C108 41.215 102.476 35.6923 98.3941 33.7834C94.2543 27.9426 88.8214 28.2929 88.8214 28.2929H82.639V21.076C82.639 21.076 83.5802 14.9499 75.8351 11.084C73.6205 7.35116 67.789 3 52.6357 3C27.25 3 28.8357 14.0643 28.8357 14.0643V25.5286H35.319ZM76.6931 94.6831C77.339 93.1049 77.1714 91.9357 77.1714 91.9357V83.922H58.916V80.548H77.1714V80.4714H52.9143V77.0286H86.7643C86.7643 77.0286 103 78.8786 103 53.1286C103 43.3182 100.942 37.3782 98.3941 33.7834C96.002 32.6647 94.105 32.787 94.105 32.787H85.824V44.498C86.0431 48.2162 84.6847 51.8544 82.0825 54.5193C79.4803 57.1841 75.8753 58.6286 72.153 58.498H48.598C45.1099 58.3433 41.7126 59.6348 39.2082 62.0676C36.7039 64.5004 35.3144 67.8589 35.368 71.35V92.959C35.368 92.959 34.657 97.5742 39.5559 101.314C42.9685 102.34 47.4609 103 53.3714 103C65.0483 103 71.0186 100.659 74.0615 98.1306C74.5873 97.9162 75.0703 97.5973 75.4787 97.1869C76.1548 96.5075 76.5794 95.6247 76.6931 94.6831ZM71.0109 90.1075C71.9863 89.7651 73.0746 89.7787 74.0702 90.1897C75.6762 90.8526 76.724 92.4185 76.724 94.156C76.7246 94.3331 76.7142 94.5091 76.6931 94.6831C76.2661 95.7266 75.4834 96.9491 74.0615 98.1306C73.5558 98.3367 73.0106 98.4462 72.454 98.4471C70.7166 98.4555 69.1455 97.4154 68.4747 95.8127C68.3668 95.5549 68.2856 95.2907 68.2304 95.0237C68.8207 94.8062 69.3627 94.4615 69.815 94.007C70.6324 93.1857 71.0895 92.073 71.0857 90.9143C71.0857 90.6403 71.0602 90.3704 71.0109 90.1075ZM71.0109 90.1075C70.4128 90.3174 69.8572 90.6612 69.3914 91.1293C68.363 92.1628 67.9427 93.6311 68.2304 95.0237C67.754 95.1993 67.2461 95.2921 66.7286 95.2929C64.9557 95.3015 63.3525 94.2402 62.6681 92.6048C61.9836 90.9693 62.3529 89.0825 63.6034 87.8258C64.854 86.5691 66.739 86.1906 68.3778 86.867C69.7633 87.4388 70.7416 88.6694 71.0109 90.1075ZM82.639 28.2929H80.3714V40.2429C80.595 44.0369 79.2089 47.7494 76.5536 50.4686C73.8982 53.1879 70.2197 54.6618 66.4214 54.5286H42.3857C38.8265 54.3707 35.3598 55.6886 32.8043 58.171C30.2488 60.6535 28.831 64.0805 28.8857 67.6429V81.213H32.183V69.502C31.9639 65.7838 33.3223 62.1456 35.9245 59.4807C38.5267 56.8159 42.1317 55.3714 45.854 55.502H69.409C72.8971 55.6567 76.2944 54.3652 78.7988 51.9324C81.3031 49.4996 82.6926 46.1411 82.639 42.65V28.2929ZM40 76C39.5 80 39.5 82.6206 40 86.5C40.5 90.3794 42.5 93.5 43.5 94.5C44.5 95.5 46.5652 97.1431 50.4152 98C54.2653 98.8569 64.5 98 64.5 98L59.3987 90.7615C57.6875 90.7615 54.1083 90.5952 52.5542 89.0476C51 87.5 50.8305 86.7411 50.4152 82.6206C50.0158 78.6569 51.0261 77.5995 52.3905 76.1715L52.3924 76.1696C52.4458 76.1137 52.4997 76.0572 52.5542 76C54 74.4796 58 74.4796 58 74.4796H69C69 74.4796 80.6555 75.4277 87.5 72C94.3445 68.5722 98 63 98.5 56C98.5812 54.8635 98.6755 53.8456 98.7617 52.9163C99.2061 48.1223 99.4317 45.6882 96.5 41.5C93 36.5 87.5 36 87.5 36C87.5 36 89.5 50.5 85.5 56C81.5 61.5 80.2616 61.7876 73.5155 63.3394H52.9819C41.2508 64.9001 40.5452 71.1772 40.0876 75.2475C40.0583 75.508 40.0301 75.7594 40 76ZM74.5 19.5C79 34 73 43 73 43C73 43 67 50 61 50H37C29.1149 51.8109 27 55 25 61C23 67 25 75.5 25 75.5C25 75.5 20.5 77.5 17 74C13.5 70.5 13 61 13 61C13 61 12 53 17 45C22 37 31 37 31 37H51C51 37 59.5 37.5 61 35.5C61.2797 35.1271 61.5768 34.7889 61.8718 34.4531C63.159 32.988 64.4068 31.5676 64 27.5C63.5 22.5 61.5 20 61.5 20C60.9725 17.3779 57.3427 17.6961 54.9268 17.9078C54.3686 17.9568 53.8753 18 53.5 18L48.5 12C48.5 12 60 10 64.5 11C69 12 71.5 14 71.5 14L74.5 19.5Z" fill="#C49F1D"/>
</g>
<defs>
<filter id="filter0_biiii_5_41" x="-4" y="-4" width="121" height="119" filterUnits="userSpaceOnUse" color-interpolation-filters="sRGB">
<feFlood flood-opacity="0" result="BackgroundImageFix"/>
<feGaussianBlur in="BackgroundImageFix" stdDeviation="2"/>
<feComposite in2="SourceAlpha" operator="in" result="effect1_backgroundBlur_5_41"/>
<feBlend mode="normal" in="SourceGraphic" in2="effect1_backgroundBlur_5_41" result="shape"/>
<feColorMatrix in="SourceAlpha" type="matrix" values="0 0 0 0 0 0 0 0 0 0 0 0 0 0 0 0 0 0 127 0" result="hardAlpha"/>
<feOffset dy="12"/>
<feGaussianBlur stdDeviation="3"/>
<feComposite in2="hardAlpha" operator="arithmetic" k2="-1" k3="1"/>
<feColorMatrix type="matrix" values="0 0 0 0 0 0 0 0 0 0 0 0 0 0 0 0 0 0 0.25 0"/>
<feBlend mode="normal" in2="shape" result="effect2_innerShadow_5_41"/>
<feColorMatrix in="SourceAlpha" type="matrix" values="0 0 0 0 0 0 0 0 0 0 0 0 0 0 0 0 0 0 127 0" result="hardAlpha"/>
<feOffset dy="4"/>
<feGaussianBlur stdDeviation="2"/>
<feComposite in2="hardAlpha" operator="arithmetic" k2="-1" k3="1"/>
<feColorMatrix type="matrix" values="0 0 0 0 0 0 0 0 0 0 0 0 0 0 0 0 0 0 0.25 0"/>
<feBlend mode="normal" in2="effect2_innerShadow_5_41" result="effect3_innerShadow_5_41"/>
<feColorMatrix in="SourceAlpha" type="matrix" values="0 0 0 0 0 0 0 0 0 0 0 0 0 0 0 0 0 0 127 0" result="hardAlpha"/>
<feOffset dy="4"/>
<feGaussianBlur stdDeviation="2"/>
<feComposite in2="hardAlpha" operator="arithmetic" k2="-1" k3="1"/>
<feColorMatrix type="matrix" values="0 0 0 0 0 0 0 0 0 0 0 0 0 0 0 0 0 0 0.25 0"/>
<feBlend mode="normal" in2="effect3_innerShadow_5_41" result="effect4_innerShadow_5_41"/>
<feColorMatrix in="SourceAlpha" type="matrix" values="0 0 0 0 0 0 0 0 0 0 0 0 0 0 0 0 0 0 127 0" result="hardAlpha"/>
<feOffset dy="4"/>
<feGaussianBlur stdDeviation="2"/>
<feComposite in2="hardAlpha" operator="arithmetic" k2="-1" k3="1"/>
<feColorMatrix type="matrix" values="0 0 0 0 0 0 0 0 0 0 0 0 0 0 0 0 0 0 0.25 0"/>
<feBlend mode="normal" in2="effect4_innerShadow_5_41" result="effect5_innerShadow_5_41"/>
</filter>
</defs>
</svg>
